<?xml version="1.0" encoding="utf-8"?>
<!-- Generator: Adobe Illustrator 23.1.1, SVG Export Plug-In . SVG Version: 6.00 Build 0)  -->
<svg version="1.1" id="Layer_1" xmlns="http://www.w3.org/2000/svg" xmlns:xlink="http://www.w3.org/1999/xlink" x="0px" y="0px"
	 viewBox="0 0 1024.6 583.5" style="enable-background:new 0 0 1024.6 583.5;" xml:space="preserve">
<style type="text/css">
	.st0{fill:none;}
	.st1{fill:#42A83B;}
</style>
<rect x="0.4" class="st0" width="1024" height="583.6"/>
<g>
	<g>
		<path class="st1" d="M495.6,318.7L485,337.1V337v-88.5h3c11,0,20-9,20-20v-86c0-11-9-20-20-20h-16c-11,0-20,9-20,20v86
			c0,11,9,20,20,20h4v213.9l8.7,15l-1.7,1c-2.2,1.3-4.6,2.1-6.9,2.4v102.8h9V349.1c8.8,2.8,18.7-0.7,23.5-9l16-27.7l-1.7-1
			C513.3,305.9,501.1,309.2,495.6,318.7z M481.3,347.4l-1.7-1l0-0.1L481.3,347.4c1.2,0.7,2.4,1.2,3.7,1.6v0.1
			C483.6,348.7,482.5,348.1,481.3,347.4z"/>
		<path class="st1" d="M996.6,318.7L986,337.1V337v-88.5h3c11,0,20-9,20-20v-86c0-11-9-20-20-20h-16c-11,0-20,9-20,20v86
			c0,11,9,20,20,20h4v213.9l8.7,15l-1.7,1c-2.2,1.3-4.6,2.1-6.9,2.4v102.8h9V349.1c8.8,2.9,18.7-0.7,23.6-9l9.7-16.9v-13.8
			C1010.8,307,1001.3,310.6,996.6,318.7z M982.3,347.4c1.2,0.7,2.4,1.2,3.7,1.6v0.1C984.6,348.7,983.5,348.1,982.3,347.4z"/>
		<path class="st1" d="M308.6,487.7L297,507.8v0.1l-4.4,7.5l0,0l4.4-7.6V374.5h3c11,0,20-9,20-20v-86c0-11-9-20-20-20h-16
			c-11,0-20,9-20,20v86c0,11,9,20,20,20h4v209.1h9v-65.9v0v-0.1c9,3.7,19.6,0.2,24.6-8.5l16-27.7l-1.7-1
			C326.3,474.9,314.1,478.2,308.6,487.7z"/>
		<path class="st1" d="M809.6,487.7L798,507.8v0.1l-4.4,7.5l0,0l4.4-7.6V374.5h3c11,0,20-9,20-20v-86c0-11-9-20-20-20h-16
			c-11,0-20,9-20,20v86c0,11,9,20,20,20h4v209.1h9v-65.9v0v-0.1c9,3.7,19.6,0.2,24.6-8.5l16-27.7l-1.7-1
			C827.3,474.9,815.1,478.2,809.6,487.7z"/>
		<path class="st1" d="M210.6,431.7l-7.6,13.2V248.5h3c11,0,20-9,20-20v-86c0-11-9-20-20-20h-16c-11,0-20,9-20,20v86
			c0,11,9,20,20,20h4v64.9l8.7,15l-1.7,1c-2.2,1.3-4.6,2.1-6.9,2.4v251.8h9V462.8c8,1.4,16.2-2.2,20.5-9.7l16-27.7l-1.7-1
			C228.3,418.9,216.1,422.2,210.6,431.7z"/>
		<path class="st1" d="M711.6,431.7l-7.6,13.2V248.5h3c11,0,20-9,20-20v-86c0-11-9-20-20-20h-16c-11,0-20,9-20,20v86
			c0,11,9,20,20,20h4v64.9l8.7,15l-1.7,1c-2.2,1.3-4.6,2.1-6.9,2.4v251.8h9V462.8c8,1.4,16.2-2.2,20.5-9.7l16-27.7l-1.7-1
			C729.3,418.9,717.1,422.2,711.6,431.7z"/>
		<path class="st1" d="M132.6,505.7L122,524.1V524V329.5h3c11,0,20-9,20-20v-86c0-11-9-20-20-20h-16c-11,0-20,9-20,20v86
			c0,11,9,20,20,20h4v98.8l4.7,8.1l-1.7,1c-1,0.6-1.9,1-2.9,1.4v144.8h9v-47.5c8.8,2.8,18.7-0.7,23.5-9l16-27.7l-1.7-1
			C150.3,492.9,138.1,496.2,132.6,505.7z M116.6,533.4L116.6,533.4l1.7,1c1.2,0.7,2.4,1.2,3.7,1.6v0.1c-1.4-0.4-2.5-1-3.7-1.7
			L116.6,533.4z"/>
		<path class="st1" d="M633.6,505.7L623,524.1V524V329.5h3c11,0,20-9,20-20v-86c0-11-9-20-20-20h-16c-11,0-20,9-20,20v86
			c0,11,9,20,20,20h4v98.8l4.7,8.1l-1.7,1c-1,0.6-1.9,1-2.9,1.4v144.8h9v-47.5c8.8,2.8,18.7-0.7,23.5-9l16-27.7l-1.7-1
			C651.3,492.9,639.1,496.2,633.6,505.7z M617.6,533.4L617.6,533.4l1.7,1c1.2,0.7,2.4,1.2,3.7,1.6v0.1c-1.4-0.4-2.5-1-3.7-1.7
			L617.6,533.4z"/>
		<path class="st1" d="M401.6,374.7L391,393.1V393v-75.5h3c11,0,20-9,20-20v-86c0-11-9-20-20-20h-16c-11,0-20,9-20,20v86
			c0,11,9,20,20,20h4v153.6l3.7,6.4l-1.7,1c-0.6,0.4-1.3,0.7-1.9,1v104.2h9V405.1c8.8,2.8,18.7-0.7,23.5-9l16-27.7l-1.7-1
			C419.3,361.9,407.1,365.2,401.6,374.7z M385.6,402.4L385.6,402.4l1.7,1c1.2,0.7,2.4,1.2,3.7,1.6v0.1c-1.4-0.4-2.5-1-3.7-1.7
			L385.6,402.4z"/>
		<path class="st1" d="M902.6,374.7L892,393.1V393v-75.5h3c11,0,20-9,20-20v-86c0-11-9-20-20-20h-16c-11,0-20,9-20,20v86
			c0,11,9,20,20,20h4v153.6l3.7,6.4l-1.7,1c-0.6,0.4-1.3,0.7-1.9,1v104.2h9V405.1c8.8,2.8,18.7-0.7,23.5-9l16-27.7l-1.7-1
			C920.3,361.9,908.1,365.2,902.6,374.7z M886.6,402.4L886.6,402.4l1.7,1c1.2,0.7,2.4,1.2,3.7,1.6v0.1c-1.4-0.4-2.5-1-3.7-1.7
			L886.6,402.4z"/>
		<path class="st1" d="M383.8,478.3l1.8-0.9l-3.6-6.2v-0.1l-12.4-21.4c-5.5-9.6-17.8-12.8-27.3-7.3l-1.7,1l16,27.7
			c5.2,8.9,16.2,12.4,25.4,8.3v-0.1C382.7,479,383.2,478.7,383.8,478.3z"/>
		<path class="st1" d="M884.8,478.3l1.8-0.9l-3.6-6.2v-0.1l-12.4-21.4c-5.5-9.6-17.8-12.8-27.3-7.3l-1.7,1l16,27.7
			c5.2,8.9,16.2,12.4,25.4,8.3v-0.1C883.7,479,884.2,478.7,884.8,478.3z"/>
		<path class="st1" d="M482.8,478.4l1.8-1l-8.6-14.8v-0.2l-7.4-12.7c-5.5-9.6-17.8-12.8-27.3-7.3l-1.7,1l16,27.7
			c4.2,7.4,12.5,11,20.4,9.7v0C478.4,480.4,480.6,479.6,482.8,478.4z"/>
		<path class="st1" d="M983.9,478.4l1.7-1l-8.6-14.8v-0.2l-7.3-12.7c-5.6-9.6-17.8-12.8-27.4-7.3l-1.7,1l16,27.7
			c4.2,7.4,12.5,11,20.4,9.7v0C979.4,480.5,981.7,479.7,983.9,478.4z"/>
		<path class="st1" d="M248.3,568.4l-1.7,1l8.2,14.2h25.4l-4.6-7.9C270.1,566.1,257.9,562.9,248.3,568.4z"/>
		<path class="st1" d="M749.3,568.4l-1.7,1l8.2,14.2h25.4l-4.6-7.9C771.1,566.1,758.9,562.9,749.3,568.4z"/>
		<path class="st1" d="M200.8,329.4l1.8-1l-8.6-14.8v-0.2l-7.4-12.7c-5.5-9.6-17.8-12.8-27.3-7.3l-1.7,1l16,27.7
			c4.2,7.4,12.5,11,20.4,9.7v0C196.4,331.4,198.6,330.6,200.8,329.4z"/>
		<path class="st1" d="M701.8,329.4l1.8-1l-8.6-14.8v-0.2l-7.4-12.7c-5.5-9.6-17.8-12.8-27.3-7.3l-1.7,1l16,27.7
			c4.2,7.4,12.5,11,20.4,9.7v0C697.4,331.4,699.6,330.6,701.8,329.4z"/>
		<path class="st1" d="M115.8,437.4l1.8-1l-4.6-7.9v-0.2l-11.4-19.6c-5.5-9.6-17.8-12.8-27.3-7.3l-1.7,1l16,27.7
			c5,8.6,15.4,12.1,24.4,8.7v0C114,438.4,114.9,438,115.8,437.4z"/>
		<path class="st1" d="M616.8,437.4l1.8-1l-4.6-7.9v-0.2l-11.4-19.6c-5.5-9.6-17.8-12.8-27.3-7.3l-1.7,1l16,27.7
			c5,8.6,15.4,12.1,24.4,8.7v0C615,438.4,615.9,438,616.8,437.4z"/>
	</g>
	<rect x="0.6" class="st0" width="1024" height="583.6"/>
</g>
</svg>
