<?xml version="1.0" encoding="utf-8"?>
<!-- Generator: Adobe Illustrator 23.1.1, SVG Export Plug-In . SVG Version: 6.00 Build 0)  -->
<svg version="1.1" id="Layer_1" xmlns="http://www.w3.org/2000/svg" xmlns:xlink="http://www.w3.org/1999/xlink" x="0px" y="0px"
	 viewBox="0 0 1023.9 584" style="enable-background:new 0 0 1023.9 584;" xml:space="preserve">
<style type="text/css">
	.st0{fill:#236524;}
	.st1{fill:none;}
</style>
<path class="st0" d="M1020.5,99.9c-2.1,0-4.4,0.4-6.6,1.3c-2.1,0.8-4.1,2-5.8,3.4l-0.8,0.7v-1.1V69.4c0-2.6-0.5-5.2-1.5-7.6
	c-1-2.3-2.4-4.4-4.2-6.2c-1.8-1.8-3.9-3.2-6.2-4.2c-2.4-1-5-1.5-7.6-1.5h-16c-4.2,0-8.2,1.3-11.5,3.8c-1.6,1.2-3,2.6-4.2,4.2
	c-1.2,1.6-2.1,3.5-2.8,5.4l-1-0.2V19.4c0-2.6-0.5-5.2-1.5-7.6c-1-2.3-2.4-4.4-4.2-6.2c-1.8-1.8-3.9-3.2-6.2-4.2
	c-2.4-1-5-1.5-7.6-1.5h-16c-2.6,0-5.2,0.5-7.6,1.5c-2.3,1-4.4,2.4-6.2,4.2c-1.8,1.8-3.2,3.9-4.2,6.2c-1,2.4-1.5,5-1.5,7.6v24v1
	l-0.8-0.6c-3.4-2.6-7.4-3.9-11.7-3.9h-16c-2.6,0-5.2,0.5-7.6,1.5c-2.3,1-4.4,2.4-6.2,4.2c-1.8,1.8-3.2,3.9-4.2,6.2
	c-1,2.4-1.5,5-1.5,7.6v11.7V72l-0.8-0.4c-2.9-1.7-6.3-2.6-9.8-2.6h-16c-2.6,0-5.2,0.5-7.6,1.5c-2.3,1-4.4,2.4-6.2,4.2
	s-3.2,3.9-4.2,6.2c-1,2.4-1.5,5-1.5,7.6v24v1l-0.8-0.6c-3.4-2.6-7.4-3.9-11.7-3.9h-16c-1,0-2.1,0.1-3.1,0.2l-0.3,0.1l-0.2-0.3
	c-1.7-2.7-4.1-5-6.9-6.5c-2.9-1.6-6.2-2.5-9.5-2.5h-16c-2.4,0-4.7,0.4-6.9,1.2c-2.1,0.8-4.1,2-5.8,3.4l-0.8,0.7v-1.1V69.4
	c0-2.6-0.5-5.2-1.5-7.6c-1-2.3-2.4-4.4-4.2-6.2c-1.8-1.8-3.9-3.2-6.2-4.2c-2.4-1-5-1.5-7.6-1.5h-16c-4.2,0-8.2,1.3-11.5,3.8
	c-1.6,1.2-3,2.6-4.2,4.2c-1.2,1.6-2.1,3.5-2.8,5.4l-1-0.2V19.4c0-2.6-0.5-5.2-1.5-7.6c-1-2.3-2.4-4.4-4.2-6.2
	c-1.8-1.8-3.9-3.2-6.2-4.2c-2.4-1-5-1.5-7.6-1.5h-16c-2.6,0-5.2,0.5-7.6,1.5c-2.3,1-4.4,2.4-6.2,4.2c-1.8,1.8-3.2,3.9-4.2,6.2
	c-1,2.4-1.5,5-1.5,7.6v24v1l-0.8-0.6c-3.4-2.6-7.4-3.9-11.7-3.9h-16c-2.6,0-5.2,0.5-7.6,1.5c-2.3,1-4.4,2.4-6.2,4.2
	c-1.8,1.8-3.2,3.9-4.2,6.2c-1,2.4-1.5,5-1.5,7.6v21v0.5h-0.5h-13c-6.6,0-12.7,3.3-16.3,8.8l-0.1,0.1l-0.1,0.1
	c-4.2,2-7.5,5.5-9.4,9.8l-0.1,0.3h-0.3h-7.7c-2.4,0-4.7,0.4-6.9,1.2c-2.1,0.8-4.1,2-5.8,3.4l-0.8,0.7v-1.1V69.4
	c0-2.6-0.5-5.2-1.5-7.6c-1-2.3-2.4-4.4-4.2-6.2c-1.8-1.8-3.9-3.2-6.2-4.2c-2.4-1-5-1.5-7.6-1.5h-16c-4.2,0-8.2,1.3-11.5,3.8
	c-1.6,1.2-3,2.6-4.2,4.2c-1.2,1.6-2.1,3.5-2.8,5.4l-1-0.2V19.4c0-2.6-0.5-5.2-1.5-7.6c-1-2.3-2.4-4.4-4.2-6.2
	c-1.8-1.8-3.9-3.2-6.2-4.2c-2.4-1-5-1.5-7.6-1.5h-16c-2.6,0-5.2,0.5-7.6,1.5c-2.3,1-4.4,2.4-6.2,4.2c-1.8,1.8-3.2,3.9-4.2,6.2
	c-1,2.4-1.5,5-1.5,7.6v24v1l-0.8-0.6c-3.4-2.6-7.4-3.9-11.7-3.9h-16c-2.6,0-5.2,0.5-7.6,1.5c-2.3,1-4.4,2.4-6.2,4.2
	c-1.8,1.8-3.2,3.9-4.2,6.2c-1,2.4-1.5,5-1.5,7.6v11.7V72l-0.8-0.4c-2.9-1.7-6.3-2.6-9.8-2.6h-16c-2.6,0-5.2,0.5-7.6,1.5
	c-2.3,1-4.4,2.4-6.2,4.2s-3.2,3.9-4.2,6.2c-1,2.4-1.5,5-1.5,7.6v24v1l-0.8-0.6c-3.4-2.6-7.4-3.9-11.7-3.9h-16c-1,0-2.1,0.1-3.1,0.2
	l-0.3,0.1L270,109c-1.7-2.7-4.1-5-6.9-6.5c-2.9-1.6-6.2-2.5-9.5-2.5h-16c-2.4,0-4.7,0.4-6.9,1.2c-2.1,0.8-4.1,2-5.8,3.4l-0.8,0.7
	v-1.1V69.4c0-2.6-0.5-5.2-1.5-7.6c-1-2.3-2.4-4.4-4.2-6.2c-1.8-1.8-3.9-3.2-6.2-4.2c-2.4-1-5-1.5-7.6-1.5h-16
	c-4.2,0-8.2,1.3-11.5,3.8c-1.6,1.2-3,2.6-4.2,4.2c-1.2,1.6-2.1,3.5-2.8,5.4l-1-0.2V19.4c0-2.6-0.5-5.2-1.5-7.6
	c-1-2.3-2.4-4.4-4.2-6.2c-1.8-1.8-3.9-3.2-6.2-4.2c-2.4-1-5-1.5-7.6-1.5h-16c-2.6,0-5.2,0.5-7.6,1.5c-2.3,1-4.4,2.4-6.2,4.2
	c-1.8,1.8-3.2,3.9-4.2,6.2c-1,2.4-1.5,5-1.5,7.6v24v1l-0.8-0.6c-3.4-2.6-7.4-3.9-11.7-3.9h-16c-2.6,0-5.2,0.5-7.6,1.5
	c-2.3,1-4.4,2.4-6.2,4.2c-1.8,1.8-3.2,3.9-4.2,6.2c-1,2.4-1.5,5-1.5,7.6v21v0.5h-0.5h-13c-6.6,0-12.7,3.3-16.3,8.8l-0.1,0.1
	l-0.1,0.1c-3.3,1.6-6,4-8,7.1s-3.1,6.8-3.1,10.5v13.4v0.6l-0.6-0.1c-1.3-0.3-2.6-0.4-3.9-0.4h-16c-1.6,0-3.1,0.2-4.6,0.6v462h1024
	V99.9H1020.5z"/>
<rect x="0.4" y="-0.1" class="st1" width="1024" height="583.6"/>
<rect x="0.2" y="-0.1" class="st1" width="1024" height="583.6"/>
</svg>
