<?xml version="1.0" encoding="utf-8"?>
<!-- Generator: Adobe Illustrator 23.1.1, SVG Export Plug-In . SVG Version: 6.00 Build 0)  -->
<svg version="1.1" id="Layer_1" xmlns="http://www.w3.org/2000/svg" xmlns:xlink="http://www.w3.org/1999/xlink" x="0px" y="0px"
	 viewBox="0 0 1023.9 583.6" style="enable-background:new 0 0 1023.9 583.6;" xml:space="preserve">
<style type="text/css">
	.st0{fill:none;}
	.st1{fill:#3C9939;}
	.st2{fill:#7C411E;}
	.st3{fill:#12491D;}
	.st4{fill:#42A83B;}
	.st5{fill:#BE894A;}
</style>
<g>
	<path class="st1" d="M243.9,437.4l-1.7-1l8.4-14.5V225.5h-9v64.9l8.7,15l-1.7,1c-2.2,1.3-4.6,2.1-6.9,2.4v274.8h9V439.8
		C248.2,439.4,246,438.6,243.9,437.4z"/>
	<path class="st1" d="M341.9,493.4l-1.7-1l4.4-7.6V351.5h-9v222.6l3.7,6.4l-1.7,1c-0.6,0.4-1.3,0.7-1.9,1v1.2h9v-88.9
		C343.6,494.3,342.7,493.9,341.9,493.4z"/>
	<path class="st1" d="M434.9,380.4l-1.7-1l5.4-9.3v-75.6h-9v153.6l3.7,6.4l-1.7,1c-0.6,0.4-1.3,0.7-1.9,1v127.2h9V382.1
		C437.3,381.7,436,381.1,434.9,380.4z"/>
	<path class="st1" d="M528.9,324.4l-1.7-1l5.4-9.3v-88.6h-9v213.9l8.7,15l-1.7,1c-2.2,1.3-4.6,2.1-6.9,2.4v125.8h9V326.1
		C531.3,325.7,530,325.1,528.9,324.4z"/>
	<path class="st2" d="M250.5,205.5v20h3c11,0,20-9,20-20v-86c0-11-9-20-20-20h-16c-11,0-20,9-20,20v86c0,11,9,20,20,20h4v-20H250.5z
		"/>
	<rect x="241.5" y="205.5" class="st1" width="9" height="20"/>
	<path class="st2" d="M344.5,331.5v20h3c11,0,20-9,20-20v-86c0-11-9-20-20-20h-16c-11,0-20,9-20,20v86c0,11,9,20,20,20h4v-20H344.5z
		"/>
	<rect x="335.5" y="331.5" class="st1" width="9" height="20"/>
	<path class="st2" d="M438.5,274.5v20h3c11,0,20-9,20-20v-86c0-11-9-20-20-20h-16c-11,0-20,9-20,20v86c0,11,9,20,20,20h4v-20H438.5z
		"/>
	<rect x="429.5" y="274.5" class="st1" width="9" height="20"/>
	<path class="st2" d="M532.5,205.5v20h3c11,0,20-9,20-20v-86c0-11-9-20-20-20h-16c-11,0-20,9-20,20v86c0,11,9,20,20,20h4v-20H532.5z
		"/>
	<rect x="523.5" y="205.5" class="st1" width="9" height="20"/>
	<path class="st1" d="M556.2,317.1l16-27.7l-1.7-1c-9.6-5.5-21.8-2.2-27.3,7.3l-10.6,18.4v12C541.3,329,551.3,325.5,556.2,317.1z"/>
	<path class="st1" d="M528.9,324.4c1.2,0.7,2.4,1.2,3.7,1.6v-12l-5.4,9.3L528.9,324.4z"/>
	<path class="st1" d="M369.2,486.1l16-27.7l-1.7-1c-9.6-5.5-21.8-2.2-27.3,7.3l-11.6,20.1v9.8C353.6,498.3,364.2,494.8,369.2,486.1z
		"/>
	<path class="st1" d="M341.9,493.4c0.9,0.5,1.8,0.9,2.7,1.3v-9.8l-4.4,7.6L341.9,493.4z"/>
	<path class="st1" d="M271.2,430.1l16-27.7l-1.7-1c-9.6-5.5-21.8-2.2-27.3,7.3l-7.6,13.2v17.9C258.5,441.2,266.9,437.6,271.2,430.1z
		"/>
	<path class="st1" d="M243.9,437.4c2.1,1.2,4.4,2,6.7,2.4v-17.9l-8.4,14.5L243.9,437.4z"/>
	<path class="st1" d="M462.2,373.1l16-27.7l-1.7-1c-9.6-5.5-21.8-2.2-27.3,7.3l-10.6,18.4v12C447.3,385,457.3,381.5,462.2,373.1z"/>
	<path class="st1" d="M434.9,380.4c1.2,0.7,2.4,1.2,3.7,1.6v-12l-5.4,9.3L434.9,380.4z"/>
	<path class="st1" d="M417.2,426.7c-5.5-9.6-17.8-12.8-27.3-7.3l-1.7,1l16,27.7c5.2,8.9,16.2,12.4,25.4,8.3v-8.3L417.2,426.7z"/>
	<path class="st1" d="M433.2,454.4l-3.7-6.4v8.3c0.7-0.3,1.3-0.6,1.9-1L433.2,454.4z"/>
	<path class="st1" d="M516.2,426.7c-5.5-9.6-17.8-12.8-27.3-7.3l-1.7,1l16,27.7c4.2,7.4,12.5,11,20.4,9.7v-18.4L516.2,426.7z"/>
	<path class="st1" d="M532.2,454.4l-8.7-15v18.4c2.4-0.4,4.7-1.2,6.9-2.4L532.2,454.4z"/>
	<path class="st1" d="M335.5,574.1l-12.3-21.4c-5.5-9.6-17.8-12.8-27.3-7.3l-1.7,1l16,27.7c2.9,5.1,7.7,8.3,13,9.5h8.8
		c1.2-0.3,2.4-0.7,3.6-1.2V574.1z"/>
	<path class="st1" d="M337.5,581.4l1.7-1l-3.7-6.4v8.3C336.2,582.1,336.8,581.8,337.5,581.4z"/>
	<path class="st1" d="M234.2,277.7c-5.5-9.6-17.8-12.8-27.3-7.3l-1.7,1l16,27.7c4.2,7.4,12.5,11,20.4,9.7v-18.4L234.2,277.7z"/>
	<path class="st1" d="M250.2,305.4l-8.7-15v18.4c2.4-0.4,4.7-1.2,6.9-2.4L250.2,305.4z"/>
	<path class="st1" d="M165.9,511.4l-1.7-1l5.4-9.3V306.5h-9v98.8l4.7,8.1l-1.7,1c-1,0.6-1.9,1-2.9,1.4v167.8h9v-70.5
		C168.3,512.7,167,512.1,165.9,511.4z"/>
	<path class="st2" d="M169.5,286.5v20h3c11,0,20-9,20-20v-86c0-11-9-20-20-20h-16c-11,0-20,9-20,20v86c0,11,9,20,20,20h4v-20H169.5z
		"/>
	<rect x="160.5" y="286.5" class="st1" width="9" height="20"/>
	<path class="st1" d="M193.2,504.1l16-27.7l-1.7-1c-9.6-5.5-21.8-2.2-27.3,7.3l-10.6,18.4v12C178.3,516,188.3,512.5,193.2,504.1z"/>
	<path class="st1" d="M165.9,511.4c1.2,0.7,2.4,1.2,3.7,1.6v-12l-5.4,9.3L165.9,511.4z"/>
	<path class="st1" d="M149.2,385.7c-5.5-9.6-17.8-12.8-27.3-7.3l-1.7,1l16,27.7c5,8.6,15.4,12.1,24.4,8.7v-10.5L149.2,385.7z"/>
	<path class="st1" d="M165.2,413.4l-4.7-8.1v10.5c1-0.4,2-0.8,2.9-1.4L165.2,413.4z"/>
	<path class="st1" d="M76.9,472.4l-1.7-1l5.4-9.3V267.5h-9v98.8l4.7,8.1l-1.7,1c-1,0.6-1.9,1-2.9,1.4v206.8h9V474.1
		C79.3,473.7,78,473.1,76.9,472.4z"/>
	<path class="st2" d="M80.5,247.5v20h3c11,0,20-9,20-20v-86c0-11-9-20-20-20h-16c-11,0-20,9-20,20v86c0,11,9,20,20,20h4v-20H80.5z"
		/>
	<rect x="71.5" y="247.5" class="st1" width="9" height="20"/>
	<path class="st1" d="M104.2,465.1l16-27.7l-1.7-1c-9.6-5.5-21.8-2.2-27.3,7.3l-10.6,18.4v12C89.3,477,99.3,473.5,104.2,465.1z"/>
	<path class="st1" d="M76.9,472.4c1.2,0.7,2.4,1.2,3.7,1.6v-12l-5.4,9.3L76.9,472.4z"/>
	<path class="st1" d="M60.2,346.7c-5.5-9.6-17.8-12.8-27.3-7.3l-1.7,1l16,27.7c5,8.6,15.4,12.1,24.4,8.7v-10.5L60.2,346.7z"/>
	<path class="st1" d="M76.2,374.4l-4.7-8.1v10.5c1-0.4,2-0.8,2.9-1.4L76.2,374.4z"/>
	<path class="st1" d="M5.5,342.3l4.7,8.1l-1.7,1c-1,0.6-1.9,1-2.9,1.4v228.7h9V450.1c-1.2-0.4-2.5-1-3.7-1.6l-1.7-1l5.4-9.3V243.5
		h-9V342.3z"/>
	<path class="st2" d="M5.5,243.5v-20h9v20h3c11,0,20-9,20-20v-86c0-11-9-20-20-20h-16c-0.5,0-1.1,0-1.6,0.1v125.8
		c0.5,0,1.1,0.1,1.6,0.1H5.5z"/>
	<rect x="5.5" y="223.5" class="st1" width="9" height="20"/>
	<path class="st1" d="M38.2,441.1l16-27.7l-1.7-1c-9.6-5.5-21.8-2.2-27.3,7.3l-10.6,18.4v12C23.3,453,33.3,449.5,38.2,441.1z"/>
	<path class="st1" d="M10.9,448.4c1.2,0.7,2.4,1.2,3.7,1.6v-12l-5.4,9.3L10.9,448.4z"/>
	<path class="st1" d="M5.5,342.3l-5.6-9.7V354c1.9-0.1,3.8-0.5,5.6-1.2V342.3z"/>
	<path class="st1" d="M10.2,350.4l-4.7-8.1v10.5c1-0.4,2-0.8,2.9-1.4L10.2,350.4z"/>
	<path class="st1" d="M935.9,380.4l-1.7-1l5.4-9.3v-75.6h-9v153.6l3.7,6.4l-1.7,1c-0.6,0.4-1.3,0.7-1.9,1v127.2h9V382.1
		C938.3,381.7,937,381.1,935.9,380.4z"/>
	<path class="st2" d="M939.5,274.5v20h3c11,0,20-9,20-20v-86c0-11-9-20-20-20h-16c-11,0-20,9-20,20v86c0,11,9,20,20,20h4v-20H939.5z
		"/>
	<rect x="930.5" y="274.5" class="st1" width="9" height="20"/>
	<path class="st2" d="M1000.5,119.5v86c0,11,9,20,20,20h3.4v-126h-3.4C1009.5,99.5,1000.5,108.5,1000.5,119.5z"/>
	<path class="st1" d="M963.2,373.1l16-27.7l-1.7-1c-9.6-5.5-21.8-2.2-27.3,7.3l-10.6,18.4v12C948.3,385,958.3,381.5,963.2,373.1z"/>
	<path class="st1" d="M935.9,380.4c1.2,0.7,2.4,1.2,3.7,1.6v-12l-5.4,9.3L935.9,380.4z"/>
	<path class="st1" d="M918.2,426.7c-5.5-9.6-17.8-12.8-27.3-7.3l-1.7,1l16,27.7c5.2,8.9,16.2,12.4,25.4,8.3v-8.3L918.2,426.7z"/>
	<path class="st1" d="M934.2,454.4l-3.7-6.4v8.3c0.7-0.3,1.3-0.6,1.9-1L934.2,454.4z"/>
	<path class="st1" d="M989.9,419.4l-1.7,1l16,27.7c4.1,7.2,12.1,10.8,19.8,9.9v-19.6l-6.7-11.7
		C1011.7,417.1,999.4,413.9,989.9,419.4z"/>
	<path class="st1" d="M744.9,437.4l-1.7-1l8.4-14.5V225.5h-9v64.9l8.7,15l-1.7,1c-2.2,1.3-4.6,2.1-6.9,2.4v274.8h9V439.8
		C749.2,439.4,747,438.6,744.9,437.4z"/>
	<path class="st1" d="M842.9,493.4l-1.7-1l4.4-7.6V351.5h-9v222.6l3.7,6.4l-1.7,1c-0.6,0.4-1.3,0.7-1.9,1v1.2h9v-88.9
		C844.6,494.3,843.7,493.9,842.9,493.4z"/>
	<path class="st2" d="M751.5,205.5v20h3c11,0,20-9,20-20v-86c0-11-9-20-20-20h-16c-11,0-20,9-20,20v86c0,11,9,20,20,20h4v-20H751.5z
		"/>
	<rect x="742.5" y="205.5" class="st1" width="9" height="20"/>
	<path class="st2" d="M845.5,331.5v20h3c11,0,20-9,20-20v-86c0-11-9-20-20-20h-16c-11,0-20,9-20,20v86c0,11,9,20,20,20h4v-20H845.5z
		"/>
	<rect x="836.5" y="331.5" class="st1" width="9" height="20"/>
	<path class="st1" d="M870.2,486.1l16-27.7l-1.7-1c-9.6-5.5-21.8-2.2-27.3,7.3l-11.6,20.1v9.8C854.6,498.3,865.2,494.8,870.2,486.1z
		"/>
	<path class="st1" d="M842.9,493.4c0.9,0.5,1.8,0.9,2.7,1.3v-9.8l-4.4,7.6L842.9,493.4z"/>
	<path class="st1" d="M772.2,430.1l16-27.7l-1.7-1c-9.6-5.5-21.8-2.2-27.3,7.3l-7.6,13.2v17.9C759.5,441.2,767.9,437.6,772.2,430.1z
		"/>
	<path class="st1" d="M744.9,437.4c2.1,1.2,4.4,2,6.7,2.4v-17.9l-8.4,14.5L744.9,437.4z"/>
	<path class="st1" d="M836.5,574.1l-12.3-21.4c-5.5-9.6-17.8-12.8-27.3-7.3l-1.7,1l16,27.7c2.9,5.1,7.7,8.3,13,9.5h8.8
		c1.2-0.3,2.4-0.7,3.6-1.2V574.1z"/>
	<path class="st1" d="M838.5,581.4l1.7-1l-3.7-6.4v8.3C837.2,582.1,837.8,581.8,838.5,581.4z"/>
	<path class="st1" d="M735.2,277.7c-5.5-9.6-17.8-12.8-27.3-7.3l-1.7,1l16,27.7c4.2,7.4,12.5,11,20.4,9.7v-18.4L735.2,277.7z"/>
	<path class="st1" d="M751.2,305.4l-8.7-15v18.4c2.4-0.4,4.7-1.2,6.9-2.4L751.2,305.4z"/>
	<path class="st1" d="M666.9,511.4l-1.7-1l5.4-9.3V306.5h-9v98.8l4.7,8.1l-1.7,1c-1,0.6-1.9,1-2.9,1.4v167.8h9v-70.5
		C669.3,512.7,668,512.1,666.9,511.4z"/>
	<path class="st2" d="M670.5,286.5v20h3c11,0,20-9,20-20v-86c0-11-9-20-20-20h-16c-11,0-20,9-20,20v86c0,11,9,20,20,20h4v-20H670.5z
		"/>
	<rect x="661.5" y="286.5" class="st1" width="9" height="20"/>
	<path class="st1" d="M694.2,504.1l16-27.7l-1.7-1c-9.6-5.5-21.8-2.2-27.3,7.3l-10.6,18.4v12C679.3,516,689.3,512.5,694.2,504.1z"/>
	<path class="st1" d="M666.9,511.4c1.2,0.7,2.4,1.2,3.7,1.6v-12l-5.4,9.3L666.9,511.4z"/>
	<path class="st1" d="M650.2,385.7c-5.5-9.6-17.8-12.8-27.3-7.3l-1.7,1l16,27.7c5,8.6,15.4,12.1,24.4,8.7v-10.5L650.2,385.7z"/>
	<path class="st1" d="M666.2,413.4l-4.7-8.1v10.5c1-0.4,2-0.8,2.9-1.4L666.2,413.4z"/>
</g>
<rect x="-0.1" class="st0" width="1024" height="583.6"/>
<rect x="0.1" class="st0" width="1024" height="583.6"/>
</svg>
