<?xml version="1.0" encoding="utf-8"?>
<!-- Generator: Adobe Illustrator 23.1.1, SVG Export Plug-In . SVG Version: 6.00 Build 0)  -->
<svg version="1.1" id="Layer_1" xmlns="http://www.w3.org/2000/svg" xmlns:xlink="http://www.w3.org/1999/xlink" x="0px" y="0px"
	 viewBox="0 0 1023.9 583.6" style="enable-background:new 0 0 1023.9 583.6;" xml:space="preserve">
<style type="text/css">
	.st0{fill:#3C9939;}
	.st1{fill:none;}
</style>
<g>
	<path class="st0" d="M543.2,295.7l-10.6,18.4V314v-88.5h2.9c11,0,20-9,20-20v-86c0-11-9-20-20-20h-16c-11,0-20,9-20,20v86
		c0,11,9,20,20,20h4h0.1v213.9l8.7,15l-1.7,1c-2.2,1.3-4.6,2.1-6.9,2.4v125.8h9V326.1c8.7,2.8,18.6-0.7,23.5-9l16-27.7l-1.7-1
		C560.9,282.9,548.7,286.2,543.2,295.7z M528.9,324.4l-1.7-1l0-0.1L528.9,324.4c1.2,0.7,2.4,1.2,3.7,1.6v0.1
		C531.2,325.7,530,325.1,528.9,324.4z"/>
	<path class="st0" d="M356.2,464.7l-11.6,20.1v0.1l-4.4,7.5l0,0l4.4-7.6V351.5h2.9c11,0,20-9,20-20v-86c0-11-9-20-20-20h-16
		c-11,0-20,9-20,20v86c0,11,9,20,20,20h4h0.1v222.6h0l-0.1-0.1v0.1l-12.3-21.4c-5.5-9.6-17.8-12.8-27.3-7.3l-1.7,1l16,27.7
		c2.9,5.1,7.7,8.3,13,9.5h8.8c1.2-0.3,2.4-0.7,3.6-1.2v-0.1c0.7-0.2,1.2-0.5,1.9-0.9l1.7-1l-3.6-6.2v-0.1l3.7,6.4l-1.7,1
		c-0.6,0.4-1.3,0.7-1.9,1v1.2h9v-88.9c-1.1-0.5-2-0.9-2.8-1.4c0.9,0.5,1.8,0.9,2.7,1.3v-0.1c9,3.7,19.6,0.2,24.6-8.5l16-27.7l-1.7-1
		C373.9,451.9,361.7,455.2,356.2,464.7z"/>
	<path class="st0" d="M258.2,408.7l-7.6,13.2v17.9h0v-17.9V225.5h2.9c11,0,20-9,20-20v-86c0-11-9-20-20-20h-16c-11,0-20,9-20,20v86
		c0,11,9,20,20,20h4h0.1v64.9l8.7,15l-1.7,1c-2.2,1.3-4.6,2.1-6.9,2.4v274.8h9V439.8c7.9,1.4,16.2-2.2,20.5-9.7l16-27.7l-1.7-1
		C275.9,395.9,263.7,399.2,258.2,408.7z M243.9,437.4c1.6,0.9,3.3,1.6,5,2C247.1,439,245.5,438.3,243.9,437.4z"/>
	<path class="st0" d="M449.2,351.7l-10.6,18.4V370l0,0v-75.5h2.9c11,0,20-9,20-20v-86c0-11-9-20-20-20h-16c-11,0-20,9-20,20v86
		c0,11,9,20,20,20h4h0.1v153.6l-12.4-21.4c-5.5-9.6-17.8-12.8-27.3-7.3l-1.7,1l16,27.7c5.2,8.9,16.2,12.4,25.4,8.3v-0.1
		c0.7-0.3,1.2-0.6,1.8-1l1.8-0.9l-3.6-6.2v-0.1l3.7,6.4l-1.7,1c-0.6,0.4-1.3,0.7-1.9,1v127.2h9V382.1c8.7,2.8,18.6-0.7,23.5-9
		l16-27.7l-1.7-1C466.9,338.9,454.7,342.2,449.2,351.7z M433.2,379.4L433.2,379.4l1.7,1c1.2,0.7,2.4,1.2,3.7,1.6v0.1
		c-1.4-0.4-2.6-1-3.7-1.7L433.2,379.4z"/>
	<path class="st0" d="M530.4,455.4l1.8-1l-8.6-14.8v-0.2l-7.4-12.7c-5.5-9.6-17.8-12.8-27.3-7.3l-1.7,1l16,27.7
		c4.2,7.4,12.5,11,20.4,9.7v0C526,457.4,528.2,456.6,530.4,455.4z"/>
	<path class="st0" d="M248.4,306.4l1.8-1l-8.6-14.8v-0.2l-7.4-12.7c-5.5-9.6-17.8-12.8-27.3-7.3l-1.7,1l16,27.7
		c4.2,7.4,12.5,11,20.4,9.7v0C244,308.4,246.2,307.6,248.4,306.4z"/>
	<path class="st0" d="M180.2,482.7l-10.6,18.4V501V306.5h2.9c11,0,20-9,20-20v-86c0-11-9-20-20-20h-16c-11,0-20,9-20,20v86
		c0,11,9,20,20,20h4h0.1v98.8l4.7,8.1l-1.7,1c-1,0.6-1.9,1-2.9,1.4v167.8h9v-70.5c8.7,2.8,18.6-0.7,23.5-9l16-27.7l-1.7-1
		C197.9,469.9,185.7,473.2,180.2,482.7z M164.2,510.4L164.2,510.4l1.7,1c1.2,0.7,2.4,1.2,3.7,1.6v0.1c-1.4-0.4-2.6-1-3.7-1.7
		L164.2,510.4z"/>
	<path class="st0" d="M163.4,414.4l1.8-1l-4.6-7.9v-0.2l-11.4-19.6c-5.5-9.6-17.8-12.8-27.3-7.3l-1.7,1l16,27.7
		c5,8.6,15.4,12.1,24.4,8.7v0C161.6,415.4,162.5,415,163.4,414.4z"/>
	<path class="st0" d="M91.2,443.7l-10.6,18.4V267.5h2.9c11,0,20-9,20-20v-86c0-11-9-20-20-20h-16c-11,0-20,9-20,20v86
		c0,11,9,20,20,20h4h0.1v98.8l4.7,8.1l-1.7,1c-1,0.6-1.9,1-2.9,1.4v206.8h9V474.1c8.7,2.8,18.6-0.7,23.5-9l16-27.7l-1.7-1
		C108.9,430.9,96.7,434.2,91.2,443.7z M75.2,471.4L75.2,471.4l1.7,1c1.2,0.7,2.4,1.2,3.7,1.6v0.1c-1.4-0.4-2.6-1-3.7-1.7L75.2,471.4
		z"/>
	<path class="st0" d="M74.4,375.4l1.8-1l-4.6-7.9v-0.2l-11.4-19.6c-5.5-9.6-17.8-12.8-27.3-7.3l-1.7,1l16,27.7
		c5,8.6,15.4,12.1,24.4,8.7v0C72.6,376.4,73.5,376,74.4,375.4z"/>
	<path class="st0" d="M25.2,419.7l-10.6,18.4V438V243.5h2.9c11,0,20-9,20-20v-86c0-11-9-20-20-20h-16c-0.5,0-1.1,0-1.6,0.1v125.8
		c0.5,0,1.1,0.1,1.6,0.1h4h0.1v98.8H5.5l-5.6-9.7V354c1.9-0.1,3.8-0.5,5.6-1.2c1-0.4,2-0.8,2.9-1.4l1.8-1l-1.7,1
		c-1,0.6-1.9,1-2.9,1.4v228.7h9V450.1c-1.2-0.4-2.5-1-3.7-1.6l-1.7-1l0.1-0.1l1.6,1c1.2,0.7,2.4,1.2,3.7,1.6v0.1
		c8.7,2.9,18.7-0.6,23.6-9l16-27.7l-1.7-1C42.9,406.9,30.7,410.2,25.2,419.7z"/>
	<path class="st0" d="M1020.5,225.5h3.4v-126h-3.4c-11,0-20,9-20,20v86C1000.5,216.5,1009.5,225.5,1020.5,225.5z"/>
	<path class="st0" d="M950.2,351.7l-10.6,18.4V370v-75.5h2.9c11,0,20-9,20-20v-86c0-11-9-20-20-20h-16c-11,0-20,9-20,20v86
		c0,11,9,20,20,20h4h0.1v153.6l3.7,6.4l-1.7,1c-0.6,0.4-1.3,0.7-1.9,1v127.2h9V382.1c8.7,2.8,18.6-0.7,23.5-9l16-27.7l-1.7-1
		C967.9,338.9,955.7,342.2,950.2,351.7z M934.2,379.4L934.2,379.4l1.7,1c1.2,0.7,2.4,1.2,3.7,1.6v0.1c-1.4-0.4-2.6-1-3.7-1.7
		L934.2,379.4z"/>
	<path class="st0" d="M932.4,455.3l1.8-0.9l-3.6-6.2v-0.1l-12.4-21.4c-5.5-9.6-17.8-12.8-27.3-7.3l-1.7,1l16,27.7
		c5.2,8.9,16.2,12.4,25.4,8.3v-0.1C931.3,456,931.8,455.7,932.4,455.3z"/>
	<path class="st0" d="M1017.3,426.7c-5.6-9.6-17.9-12.8-27.4-7.3l-1.7,1l16,27.7c4.1,7.2,12.1,10.8,19.8,9.9v-19.6L1017.3,426.7z"/>
	<path class="st0" d="M857.2,464.7l-11.6,20.1v0.1l-4.4,7.5l0,0l4.4-7.6V351.5h2.9c11,0,20-9,20-20v-86c0-11-9-20-20-20h-16
		c-11,0-20,9-20,20v86c0,11,9,20,20,20h4h0.1v222.6l3.7,6.4l-1.7,1c-0.6,0.4-1.3,0.7-1.9,1v1.2h9v-88.9c-1.1-0.5-2-0.9-2.8-1.4
		c0.9,0.5,1.8,0.9,2.7,1.3v-0.1c9,3.7,19.6,0.2,24.6-8.5l16-27.7l-1.7-1C874.9,451.9,862.7,455.2,857.2,464.7z"/>
	<path class="st0" d="M759.2,408.7l-7.6,13.2V225.5h2.9c11,0,20-9,20-20v-86c0-11-9-20-20-20h-16c-11,0-20,9-20,20v86
		c0,11,9,20,20,20h4h0.1v64.9l8.7,15l-1.7,1c-2.2,1.3-4.6,2.1-6.9,2.4v274.8h9V439.8c7.9,1.4,16.2-2.2,20.5-9.7l16-27.7l-1.7-1
		C776.9,395.9,764.7,399.2,759.2,408.7z M749.9,439.4c-1.8-0.4-3.4-1.1-5-2C746.5,438.3,748.2,439,749.9,439.4z"/>
	<path class="st0" d="M838.5,581.4l1.7-1l-3.6-6.2v-0.1h0l-0.1-0.1v0.1l-12.3-21.4c-5.5-9.6-17.8-12.8-27.3-7.3l-1.7,1l16,27.7
		c2.9,5.1,7.7,8.3,13,9.5h8.8c1.2-0.3,2.4-0.7,3.6-1.2v-0.1C837.3,582.1,837.8,581.8,838.5,581.4z"/>
	<path class="st0" d="M749.4,306.4l1.8-1l-8.6-14.8v-0.2l-7.4-12.7c-5.5-9.6-17.8-12.8-27.3-7.3l-1.7,1l16,27.7
		c4.2,7.4,12.5,11,20.4,9.7v0C745,308.4,747.2,307.6,749.4,306.4z"/>
	<path class="st0" d="M681.2,482.7l-10.6,18.4V501V306.5h2.9c11,0,20-9,20-20v-86c0-11-9-20-20-20h-16c-11,0-20,9-20,20v86
		c0,11,9,20,20,20h4h0.1v98.8l4.7,8.1l-1.7,1c-1,0.6-1.9,1-2.9,1.4v167.8h9v-70.5c8.7,2.8,18.6-0.7,23.5-9l16-27.7l-1.7-1
		C698.9,469.9,686.7,473.2,681.2,482.7z M665.2,510.4L665.2,510.4l1.7,1c1.2,0.7,2.4,1.2,3.7,1.6v0.1c-1.4-0.4-2.6-1-3.7-1.7
		L665.2,510.4z"/>
	<path class="st0" d="M664.4,414.4l1.8-1l-4.6-7.9v-0.2l-11.4-19.6c-5.5-9.6-17.8-12.8-27.3-7.3l-1.7,1l16,27.7
		c5,8.6,15.4,12.1,24.4,8.7v0C662.6,415.4,663.5,415,664.4,414.4z"/>
</g>
<rect x="-0.1" class="st1" width="1024" height="583.6"/>
<rect x="0.1" class="st1" width="1024" height="583.6"/>
</svg>
