<?xml version="1.0" encoding="utf-8"?>
<!-- Generator: Adobe Illustrator 21.1.0, SVG Export Plug-In . SVG Version: 6.00 Build 0)  -->
<svg version="1.1" id="Layer_1" xmlns="http://www.w3.org/2000/svg" xmlns:xlink="http://www.w3.org/1999/xlink" x="0px" y="0px"
	 viewBox="0 0 72 72" style="enable-background:new 0 0 72 72;" xml:space="preserve">
<style type="text/css">
	.st0{display:none;}
	.st1{fill:none;stroke:#000000;stroke-width:9;stroke-miterlimit:10;}
	.st2{fill:none;stroke:#000000;stroke-width:3;stroke-miterlimit:10;}
</style>
<circle class="st0" cx="16.2" cy="9.6" r="0.3"/>
<path d="M37.7,34.7l-0.6,0l0-0.6c0.1-1,2-3,2-3h-2.6h-2.6c0,0,1.8,2,2,3l0,0.6l-0.6,0c-1-0.1-3-2-3-2v2.6V38c0,0,2-1.8,3-2l0.6,0
	l0,0.5c-0.1,1-2,3-2,3h2.6h2.6c0,0-1.8-2-2-3l0-0.5l0.6,0c1,0.1,3,2,3,2v-2.6v-2.6C40.8,32.7,38.8,34.5,37.7,34.7z"/>
<rect x="23.6" y="22.4" class="st1" width="25.8" height="25.8"/>
<rect x="14.6" y="13.4" class="st2" width="44.5" height="44.5"/>
</svg>
