<?xml version="1.0" encoding="utf-8"?>
<!-- Generator: Adobe Illustrator 23.1.1, SVG Export Plug-In . SVG Version: 6.00 Build 0)  -->
<svg version="1.1" id="Layer_1" xmlns="http://www.w3.org/2000/svg" xmlns:xlink="http://www.w3.org/1999/xlink" x="0px" y="0px"
	 viewBox="0 0 191 191" style="enable-background:new 0 0 191 191;" xml:space="preserve">
<style type="text/css">
	.st0{fill:#FFFFFF;}
	.st1{fill:#DCDCDC;}
	.st2{fill:#F59A9A;}
</style>
<rect class="st0" width="191" height="191"/>
<path class="st1" d="M136.3,190.5H0.5V0.5h190V129c-7.4,11.5-15.7,22.6-24.8,32.9C156.7,172.1,146.8,181.7,136.3,190.5z"/>
<path class="st0" d="M0.5,187.4V0.5h169.4c-1.7,23.1-7.3,45.4-16.5,66.6c-4.5,10.3-9.9,20.3-16,29.8c-6.1,9.4-13,18.3-20.5,26.6
	c-7.5,8.3-15.8,15.9-24.5,22.9c-8.8,7-18.2,13.2-28,18.7C44.4,176,22.9,183.5,0.5,187.4z"/>
<path class="st2" d="M0.5,125.1V0.5h108.2c-1.6,14.8-5.4,29.2-11.4,42.8C91.4,56.6,83.5,69,73.8,80.1c-9.6,11-20.8,20.4-33.2,28.1
	C28.1,115.8,14.6,121.5,0.5,125.1z"/>
<path id="Intersection_6" class="st0" d="M0,0h60.8C55.5,34.2,32.3,63,0,75.5V0z"/>
</svg>
