<?xml version="1.0" encoding="utf-8"?>
<!-- Generator: Adobe Illustrator 23.0.1, SVG Export Plug-In . SVG Version: 6.00 Build 0)  -->
<svg version="1.1" id="Layer_1" xmlns="http://www.w3.org/2000/svg" xmlns:xlink="http://www.w3.org/1999/xlink" x="0px" y="0px"
	 viewBox="0 0 200 200" style="enable-background:new 0 0 200 200;" xml:space="preserve">
<style type="text/css">
	.st0{fill:#E7CC68;}
</style>
<g>
	<g>
		<path class="st0" d="M165.5,180.1L165.5,180.1c0-2.4,1.9-4.3,4.3-4.3c2.4,0,4.3,1.9,4.3,4.3l0,0c0,2.3-1.9,4.3-4.3,4.3
			C167.3,184.4,165.5,182.4,165.5,180.1z M173.1,180.1L173.1,180.1c0-1.9-1.4-3.3-3.3-3.3c-1.9,0-3.3,1.5-3.3,3.3l0,0
			c0,1.8,1.4,3.3,3.3,3.3C171.6,183.4,173.1,181.9,173.1,180.1z M168,177.7h2c0.6,0,1.1,0.2,1.4,0.5c0.2,0.2,0.4,0.6,0.4,1l0,0
			c0,0.7-0.4,1.2-1,1.4l1.1,1.6h-1.2l-1-1.5H169v1.5h-1V177.7z M170,179.9c0.5,0,0.8-0.3,0.8-0.7l0,0c0-0.4-0.3-0.7-0.8-0.7h-1v1.3
			L170,179.9L170,179.9z"/>
	</g>
	<path class="st0" d="M177.2,50.1h-20.3V39.7h13.8V15.6H119v24.1h13.8V50H93.7L75.9,15.6H39.7v24.1h13.8V50H5.3v24.1h10.3v51.7H5.3
		v24.1h48.2v10.3H39.7v24.1h51.7v-24.1H77.6v-10.3h39.1l17.8,34.4h22.4l0,0v-34.4h20.3l17.6-17.6V67.6L177.2,50.1z M170.6,77.6v44.8
		l-3.5,3.4h-10.3V74.2h10.3L170.6,77.6z M132.7,74.2v51.7l-26.6-51.7H132.7z M39.7,125.8V74.2h13.8v51.7L39.7,125.8L39.7,125.8z
		 M77.6,125.8V74.2l26.7,51.7L77.6,125.8L77.6,125.8z"/>
</g>
</svg>
