<?xml version="1.0" encoding="utf-8"?>
<!-- Generator: Adobe Illustrator 23.1.1, SVG Export Plug-In . SVG Version: 6.00 Build 0)  -->
<svg version="1.1" id="Layer_1" xmlns="http://www.w3.org/2000/svg" xmlns:xlink="http://www.w3.org/1999/xlink" x="0px" y="0px"
	 viewBox="0 0 392.1 543.7" style="enable-background:new 0 0 392.1 543.7;" xml:space="preserve">
<style type="text/css">
	.st0{clip-path:url(#SVGID_2_);fill:#74622A;}
	.st1{display:none;}
	.st2{display:inline;}
	.st3{display:inline;clip-path:url(#SVGID_4_);}
	.st4{fill:#EDF380;}
	.st5{display:inline;clip-path:url(#SVGID_6_);}
	.st6{fill:#B49B50;}
	.st7{display:inline;clip-path:url(#SVGID_8_);}
	.st8{fill:#F6B851;}
</style>
<g id="tree_1_">
	<defs>
		<rect id="SVGID_1_" x="0.2" y="-0.2" width="391.9" height="543.4"/>
	</defs>
	<clipPath id="SVGID_2_">
		<use xlink:href="#SVGID_1_"  style="overflow:visible;"/>
	</clipPath>
	<path id="tree" class="st0" d="M38.3,271.5c1.5-1.9,2.8-4.1,4.7-5.6c3.5-2.8,7.6-3.2,11.7-1.2c4.9,2.3,6.3,6.6,6.4,11.5
		c1.1,33.2,16.1,58.5,44.1,76c11.4,7.2,24,11.3,38,12.2c0-48.5,0-97,0-145.9c-2.7-0.6-5.5-1.2-8.4-1.9
		c-35.8-9.2-60.6-39.9-62.2-77.1c-0.3-7.9,3.9-13.2,10.8-13.6c6.7-0.4,11.5,4.7,11.8,12.6c1.2,27.6,20.1,50.7,46.1,56.5
		c0.5,0.1,1,0.1,2.3,0.2c0-2,0-3.9,0-5.8c0-26,0-52,0-78c0-4.9,0.8-9.3,5.5-12.1c8.2-4.8,17.3,0.8,18,11.4c0.5,7.5,0.2,15,0,22.5
		c-0.1,5.1-0.8,10.3-0.8,15.4c-0.1,48.7,0,97.3,0,146c0,2,0,4,0,6.5c10.1-0.8,19.4-3.3,28.1-7.3c34.2-15.6,54.7-41.9,60.7-79.2
		c0.7-4.3,0.6-8.6,1-13c0.7-7.4,5.3-11.7,11.9-11.3c6.4,0.4,10.5,5,10.4,12.2c-0.3,30.2-10.5,56.7-30.3,79.4
		c-20.7,23.6-46.7,37.6-78,41.3c-4.4,0.5-3.7,3.3-3.7,6.1c0,59.5,0,119,0,178.4c0,9.8,0.3,19.6,0.5,29.5c0,1.8,0,3.6,0,5.7
		c-7.9,0-15.1,0-22.9,0c0-51.6,0-103.3,0-155.5c-4.6-0.8-8.8-1.5-13-2.2c-45.3-7.8-82.7-45.4-90.5-90.7c-0.6-3.7-1.4-7.5-2-11.2
		C38.3,279.5,38.3,275.5,38.3,271.5z"/>
</g>
<g id="yellow-leaves_1_" class="st1">
	<defs>
		<rect id="SVGID_3_" x="0.2" y="-0.2" width="391.9" height="543.4"/>
	</defs>
	<clipPath id="SVGID_4_" class="st2">
		<use xlink:href="#SVGID_3_"  style="overflow:visible;"/>
	</clipPath>
	<g id="yellow-leaves" class="st3">
		<path class="st4" d="M234.7,25.5c-7,8.9-13.8,15.6-22.5,20c-10.6,5.4-20.7-0.9-21.1-12.9c-0.4-11.9,7.7-19,19.2-15.9
			C218.3,18.8,226,22.3,234.7,25.5z"/>
		<path class="st4" d="M225.6,469.9c3.4-8.6,6-16.4,9.6-23.7c2.7-5.5,7.8-7.5,12.3-6.4c6.6,1.6,11.5,7.2,12.3,14
			c0.6,5.3-1.8,9.5-7.4,12.3C244.4,470,235.9,470.3,225.6,469.9z"/>
		<path class="st4" d="M289.7,352.5c-7.3-2.8-14.9-5.2-21.9-8.6c-6-2.9-8.1-7.9-6.8-13c1.5-6.2,7.2-11,14-11.7
			c5.6-0.6,10.3,1.8,12.2,8c2.3,7.6,3.3,15.6,4.9,23.5C291.2,351.3,290.5,351.9,289.7,352.5z"/>
		<path class="st4" d="M191.7,200.2c-0.5,7.7-0.2,15.6-1.6,23.1c-2,10.3-9.8,13.4-19.2,8.4c-1-0.5-2-1.3-2.6-2.1
			c-4-5-2.1-18.6,3.4-21.7c5.8-3.3,12-5.9,18.1-8.8C190.3,199.4,191,199.8,191.7,200.2z"/>
	</g>
</g>
<g id="light-brown-leaves_1_" class="st1">
	<defs>
		<rect id="SVGID_5_" x="0.2" y="-0.2" width="391.9" height="543.4"/>
	</defs>
	<clipPath id="SVGID_6_" class="st2">
		<use xlink:href="#SVGID_5_"  style="overflow:visible;"/>
	</clipPath>
	<g id="light-brown-leaves" class="st5">
		<path class="st6" d="M110.3,6.1c5.2,8.8,11,17.4,15.3,26.6c2.5,5.5,3.1,12.1,3.6,18.3c0.4,4.7-2.5,8.4-6.5,11
			c-9.1,5.8-20.8,5.5-29.4-1C86.7,56,85,49.2,87,41.5c3.2-12.7,11.3-22.4,19.5-32c1-1.1,1.8-2.3,2.8-3.4
			C109.6,6.1,110,6.1,110.3,6.1z"/>
		<path class="st6" d="M338.1,244.6c-13.2,4.5-26,7.7-39.4,5.6c-12.5-1.9-17.8-16.2-10.9-27.8c7.2-12.3,18-14.8,29.2-6.2
			C326.5,223.5,332.4,233.6,338.1,244.6z"/>
		<path class="st6" d="M268.5,71.2c10.6,8.9,20.7,17.8,25.8,30.7c4.8,12.1-5.5,24.8-18.9,23.9c-14.8-1-21.6-9-19.4-23.8
			C257.7,91,262.5,81.1,268.5,71.2z"/>
		<path class="st6" d="M383.3,79.2c-2.3,12.9-5.6,24.8-12.7,35.3c-9.3,13.7-23.1,10-30.8-1.8c-8.4-12.9-3.3-24.9,11.3-29.6
			C361.3,79.8,371.8,79,383.3,79.2z"/>
		<path class="st6" d="M222.9,183.2c6.9,2.7,14,5,20.6,8.3c7.3,3.6,9.7,9.2,7.5,14.8c-2.8,7.1-11.1,11.9-18,10.1
			c-4.8-1.3-7.7-5-8.7-9.5c-1.6-7.4-2.3-14.9-3.3-22.4C221.6,184.1,222.2,183.7,222.9,183.2z"/>
	</g>
</g>
<g id="orange-leaves_1_" class="st1">
	<defs>
		<rect id="SVGID_7_" x="0.2" y="-0.2" width="391.9" height="543.4"/>
	</defs>
	<clipPath id="SVGID_8_" class="st2">
		<use xlink:href="#SVGID_7_"  style="overflow:visible;"/>
	</clipPath>
	<g id="orange-leaves" class="st7">
		<path class="st8" d="M221.6,115.8c-9.9,11.1-19.1,22.2-32.9,27.4c-4.2,1.6-9.5,1.5-13.9,0.5c-5.7-1.2-8.2-5.6-8.2-11.5
			c0-6.8,0.3-13.6-0.1-20.4c-0.3-4.7,1.9-7.7,5.8-8.6c5-1.1,10.5-1.8,15.5-1.2C200.1,103.4,210.6,109.3,221.6,115.8z"/>
		<path class="st8" d="M325.5,475.6c-4.5-12.5-7.9-24.6-6.7-37.4c1.2-13.8,14.9-20.4,27-13.4c13.7,8,15.8,19.2,5.6,31.3
			C344.5,464.4,335.7,470.3,325.5,475.6z"/>
		<path class="st8" d="M350.2,168.5c1.8,8.1,4.4,16.2,5.2,24.4c0.9,9.1-4.3,13.4-13.5,12.7c-5.7-0.5-10.1-3.4-12.7-8.4
			c-2.6-4.9-1.1-9.7,2.2-13.4c5-5.6,10.6-10.7,16-15.9C348.3,168,349.3,168.2,350.2,168.5z"/>
		<path class="st8" d="M83.1,232.4c-2.9,8.7-6.1,16.6-12.3,22.9c-3.6,3.6-7.8,5.9-12.9,3.4c-6.2-3-9.6-7.9-9.4-15
			c0.1-5.2,2.9-9.1,8.5-11C65.3,229.9,73.8,230.6,83.1,232.4z"/>
	</g>
</g>
</svg>
