<svg id="noun-innovator-thinking-5071307" xmlns="http://www.w3.org/2000/svg" width="82.884" height="98.237" viewBox="0 0 82.884 98.237">
  <path id="Path_230" data-name="Path 230" d="M219.4,700.774H185.634a1.535,1.535,0,0,1-1.535-1.535V693.1h-9.21a6.146,6.146,0,0,1-6.14-6.14v-6.14a1.535,1.535,0,0,1,3.07,0v6.14a3.073,3.073,0,0,0,3.07,3.07h10.744a1.535,1.535,0,0,1,1.535,1.535v6.14h30.7V679.285c0-5.116,2.508-8.941,5.163-12.99a47.9,47.9,0,0,0,5-9.056,1.535,1.535,0,0,1,2.859,1.116,51.165,51.165,0,0,1-5.294,9.624c-2.5,3.814-4.66,7.108-4.66,11.308v19.954a1.535,1.535,0,0,1-1.535,1.535Z" transform="translate(-162.612 -602.54)" fill="#ffc82d"/>
  <path id="Path_231" data-name="Path 231" d="M101.442,195.709a1.535,1.535,0,0,1-1.535-1.535v-4.6H98.372a4.6,4.6,0,0,1-4-6.89L99.906,173v-9.522a32.269,32.269,0,0,1,32.233-32.233c.927,0,1.911.049,3.005.152a1.534,1.534,0,0,1-.284,3.056c-1-.094-1.891-.138-2.723-.138a29.2,29.2,0,0,0-29.163,29.163V173.4a1.523,1.523,0,0,1-.2.761L97.037,184.2a1.534,1.534,0,0,0,1.332,2.3h3.07a1.535,1.535,0,0,1,1.535,1.535v6.14a1.535,1.535,0,0,1-1.535,1.535Z" transform="translate(-93.769 -120.498)" fill="#ffc82d"/>
  <path id="Path_232" data-name="Path 232" d="M781.039,179.5a1.538,1.538,0,0,1-1.455-2.022l1.294-3.88a6.447,6.447,0,0,0-8.884,0l1.293,3.879a1.535,1.535,0,0,1-2.912.971l-1.535-4.6a1.541,1.541,0,0,1,.083-1.173c.08-.16,2.022-3.919,7.513-3.919s7.432,3.759,7.513,3.919a1.533,1.533,0,0,1,.083,1.173l-1.535,4.6a1.537,1.537,0,0,1-1.457,1.05Z" transform="translate(-713.504 -154.94)" fill="#ffc82d"/>
  <path id="Path_233" data-name="Path 233" d="M638.7,0a19.94,19.94,0,0,0-12.015,35.865,3.1,3.1,0,0,1,1.271,2.474v7.708a6.146,6.146,0,0,0,6.14,6.14h9.21a6.146,6.146,0,0,0,6.14-6.14V38.339a3.1,3.1,0,0,1,1.271-2.474A19.94,19.94,0,0,0,638.7,0ZM648.87,33.417a6.142,6.142,0,0,0-2.491,4.924v7.708a3.073,3.073,0,0,1-3.07,3.07H634.1a3.073,3.073,0,0,1-3.07-3.07h12.279a1.535,1.535,0,0,0,0-3.07H631.029V39.91h12.279a1.535,1.535,0,0,0,0-3.07h-6.14V29.165h3.07v4.6a1.535,1.535,0,0,0,3.07,0V27.63a1.535,1.535,0,0,0-1.535-1.535h-6.14A1.535,1.535,0,0,0,634.1,27.63v9.21h-3.268a6.193,6.193,0,0,0-2.293-3.421,16.884,16.884,0,1,1,20.331,0Z" transform="translate(-575.774 0)" fill="#ffc82d"/>
</svg>
