<svg xmlns="http://www.w3.org/2000/svg" width="19" height="18.974" viewBox="0 0 19 18.974">
  <path id="noun-expand-3565401" d="M328.738,330.327a.882.882,0,0,1,.874-.874h4.319a.874.874,0,1,1,0,1.749h-2.226l4.558,4.558a.862.862,0,1,1-1.219,1.219l-4.558-4.558v2.226a.874.874,0,0,1-1.749,0Zm13.78-.874h4.319a.882.882,0,0,1,.874.874v4.319a.874.874,0,1,1-1.749,0V332.42l-4.558,4.558a.862.862,0,1,1-1.219-1.219l4.558-4.558h-2.226a.882.882,0,0,1-.874-.874A.919.919,0,0,1,342.518,329.452Zm-6.28,11.448a.848.848,0,0,1,0,1.219l-4.558,4.558h2.226a.874.874,0,0,1,0,1.749h-4.319a.882.882,0,0,1-.874-.874v-4.319a.874.874,0,0,1,1.749,0v2.226l4.558-4.558A.9.9,0,0,1,336.238,340.9Zm3.948,0a.848.848,0,0,1,1.219,0l4.558,4.558v-2.226a.874.874,0,0,1,1.749,0v4.319a.882.882,0,0,1-.874.874h-4.319a.874.874,0,0,1,0-1.749h2.226l-4.558-4.558A.9.9,0,0,1,340.186,340.9Z" transform="translate(-328.712 -329.452)" fill="#fff" fill-rule="evenodd"/>
</svg>
