<?xml version="1.0" encoding="utf-8"?>
<svg version="1.1" baseProfile="tiny" id="fb-icon" xmlns="http://www.w3.org/2000/svg" xmlns:xlink="http://www.w3.org/1999/xlink"
	 x="0px" y="0px" viewBox="0 0 45.4 45.4" overflow="visible" xml:space="preserve">
<path id="Path_1520" d="M41.9,0.2L41.9,0.2l-38.3,0c-1.8,0-3.3,1.4-3.3,3.2v38.5c0,1.8,1.5,3.3,3.3,3.2h14.1v-18h-3.8v-5.6h3.8v-3.7
	c-0.2-2,0.3-4,1.2-5.8c1.4-1.9,3.6-2.9,6-2.8c2.3-0.1,4.6,0.1,6.9,0.7l-1,5.7c-1-0.3-2-0.4-3.1-0.5c-1.5,0-2.8,0.5-2.8,2v4.3h6.1
	l-0.4,5.6h-5.7v18h17.1c1.8,0,3.3-1.4,3.3-3.2V3.4C45.2,1.6,43.7,0.2,41.9,0.2z"/>
</svg>
