<svg id="noun-graduation-cap-5071303" xmlns="http://www.w3.org/2000/svg" width="98.232" height="85.955" viewBox="0 0 98.232 85.955">
  <path id="Path_228" data-name="Path 228" d="M165.145,92.112,122.169,75.228a3.078,3.078,0,0,0-2.247,0L76.946,92.112a3.069,3.069,0,0,0,0,5.713l14.937,5.868v29.649c0,7,12.537,12.279,29.163,12.279s29.163-5.278,29.163-12.279V108.783a1.535,1.535,0,0,0-3.07,0v24.559c0,4.356-10.715,9.21-26.094,9.21s-26.094-4.854-26.094-9.21v-2.035c4.692,4.006,14.364,6.64,26.094,6.64,9.535,0,18.431-1.877,23.8-5.021a1.534,1.534,0,1,0-1.552-2.648c-4.918,2.88-13.236,4.6-22.249,4.6-15.379,0-26.094-4.854-26.094-9.209v-2.035c4.692,4.006,14.364,6.64,26.094,6.64,9.535,0,18.431-1.877,23.8-5.021a1.534,1.534,0,0,0-1.552-2.648c-4.918,2.88-13.236,4.6-22.249,4.6-15.379,0-26.094-4.854-26.094-9.21V104.9l24.97,9.81a3.063,3.063,0,0,0,2.246,0l42.978-16.884a3.069,3.069,0,0,0,0-5.713Zm-44.1,19.74L78.067,94.968l42.978-16.884,42.978,16.884Z" transform="translate(-68.859 -75.016)" fill="#ffc82d"/>
  <path id="Path_229" data-name="Path 229" d="M13.284,419.208a1.535,1.535,0,1,0-3.005.626,93.525,93.525,0,0,1,1.965,13.5H3.11a109.03,109.03,0,0,1,2.709-16.884h4.927a1.535,1.535,0,0,0,1.535-1.535v-4.6a4.6,4.6,0,0,0-3.124-4.339,1.4,1.4,0,0,0,.054-.265V376.544a1.535,1.535,0,0,0-3.07,0v29.163a1.37,1.37,0,0,0,.054.265,4.6,4.6,0,0,0-3.124,4.339v4.417C2.688,416.29,0,427.492,0,434.871a1.535,1.535,0,0,0,1.535,1.535H13.816a1.535,1.535,0,0,0,1.535-1.535,86.336,86.336,0,0,0-2.066-15.662Zm-7.143-8.9a1.535,1.535,0,0,1,3.07,0v3.07H6.141Z" transform="translate(-0.001 -350.451)" fill="#ffc82d"/>
</svg>
