<?xml version="1.0" encoding="utf-8"?>
<!-- Generator: Adobe Illustrator 27.3.1, SVG Export Plug-In . SVG Version: 6.00 Build 0)  -->
<svg version="1.1" baseProfile="tiny" id="Layer_1" xmlns="http://www.w3.org/2000/svg" xmlns:xlink="http://www.w3.org/1999/xlink"
	 x="0px" y="0px" viewBox="0 0 45.4 45.4" overflow="visible" xml:space="preserve">
<path id="Path_2520" d="M38.5,38.5h-6.7V28.1c0-2.5,0-5.7-3.5-5.7c-3.5,0-4,2.7-4,5.5v10.6h-6.7V17.1h6.4V20h0.1
	c1.3-2.2,3.7-3.6,6.3-3.5c6.8,0,8,4.4,8,10.2L38.5,38.5z M10.2,14.1c-2.1,0-3.9-1.7-3.9-3.9s1.7-3.9,3.9-3.9c2.1,0,3.9,1.7,3.9,3.9
	S12.3,14.1,10.2,14.1L10.2,14.1 M13.5,38.5H6.9V17.1h6.7V38.5z M41.9,0.2H3.5c-1.8,0-3.3,1.4-3.3,3.2v38.5c0,1.8,1.5,3.3,3.3,3.2
	h38.3c1.8,0,3.3-1.4,3.3-3.2V3.4C45.2,1.6,43.7,0.2,41.9,0.2"/>
</svg>
