<svg xmlns="http://www.w3.org/2000/svg" xmlns:xlink="http://www.w3.org/1999/xlink" width="491" height="270" viewBox="0 0 491 270">
  <defs>
    <clipPath id="clip-path">
      <rect id="Rectangle_205" data-name="Rectangle 205" width="329.76" height="130.077" fill="none"/>
    </clipPath>
  </defs>
  <g id="Group_135" data-name="Group 135" transform="translate(-411 -2348)">
    <rect id="Rectangle_278" data-name="Rectangle 278" width="491" height="270" rx="20" transform="translate(411 2348)" fill="#fff"/>
    <g id="Group_91" data-name="Group 91" transform="translate(491.62 2413.962)">
      <g id="Group_90" data-name="Group 90" clip-path="url(#clip-path)">
        <path id="Path_73" data-name="Path 73" d="M233.645,202.576a17.743,17.743,0,0,1,29.374-13.09l-2.46,2.828a13.733,13.733,0,1,0,.733,19.792l2.618,2.879a17.625,17.625,0,0,1-12.567,5.131,17.348,17.348,0,0,1-17.7-17.54" transform="translate(-136.558 -108.208)" fill="#253746"/>
        <path id="Path_74" data-name="Path 74" d="M311.762,218.727a13.405,13.405,0,1,1,13.4,13.247,13.243,13.243,0,0,1-13.4-13.247m22.725,0a9.32,9.32,0,1,0-9.32,9.372,9.17,9.17,0,0,0,9.32-9.372" transform="translate(-182.215 -120.065)" fill="#253746"/>
        <path id="Path_75" data-name="Path 75" d="M384.842,205.951h3.979V210.3a9.961,9.961,0,0,1,8.849-4.87c6.388,0,9.216,3.874,9.216,10.577V231.45h-3.979V216.527c0-4.712-1.728-7.226-6.336-7.226a7.645,7.645,0,0,0-7.749,7.8V231.45h-3.979Z" transform="translate(-224.928 -120.065)" fill="#253746"/>
        <path id="Path_76" data-name="Path 76" d="M445.95,228.1l1.623-3.246A11.63,11.63,0,0,0,455.9,228.2c3.508,0,6.388-1.623,6.388-3.926,0-2.671-3.09-3.4-6.179-4.189-4.713-1.2-9.006-2.513-9.006-7.382,0-4.608,4.818-7.278,9.111-7.278a14.433,14.433,0,0,1,8.692,2.723l-1.571,3.247a12.03,12.03,0,0,0-7.069-2.2c-2.617,0-5.079,1.466-5.079,3.456,0,2.514,2.827,3.09,5.812,3.718,4.607,1.047,9.372,2.775,9.372,7.8,0,5.393-5.5,7.8-10.472,7.8a13.731,13.731,0,0,1-9.948-3.874" transform="translate(-260.643 -120.065)" fill="#253746"/>
        <path id="Path_77" data-name="Path 77" d="M504.792,222.6V206.687h3.979v15.394c0,4.765,2.3,6.754,6.44,6.754,4.609,0,7.278-3.77,7.278-7.7V206.687h3.979v25.5h-3.823v-4.5a9.511,9.511,0,0,1-8.587,5.026c-6.283,0-9.267-3.3-9.267-10.1" transform="translate(-295.034 -120.802)" fill="#253746"/>
        <rect id="Rectangle_204" data-name="Rectangle 204" width="3.979" height="34.453" transform="translate(238.135 76.932)" fill="#253746"/>
        <path id="Path_78" data-name="Path 78" d="M596.687,215.779V201.223h-3.823v-3.3h3.823v-5.5l3.979-.733v6.23h8.691v3.3h-8.691v14.66c0,3.508,1.518,4.5,3.561,4.5a7.6,7.6,0,0,0,4.188-1.414l1.309,3.089a10.493,10.493,0,0,1-5.865,1.884c-4.5,0-7.173-2.2-7.173-8.168" transform="translate(-346.51 -112.038)" fill="#253746"/>
        <path id="Path_79" data-name="Path 79" d="M643.262,185.668A2.638,2.638,0,0,1,645.88,183a2.682,2.682,0,0,1,2.67,2.671,2.637,2.637,0,0,1-2.67,2.617,2.592,2.592,0,0,1-2.618-2.617m.628,7.173h3.979v25.5H643.89Z" transform="translate(-375.966 -106.956)" fill="#253746"/>
        <path id="Path_80" data-name="Path 80" d="M670.479,205.951h3.979V210.3a9.961,9.961,0,0,1,8.849-4.87c6.388,0,9.216,3.874,9.216,10.577V231.45h-3.979V216.527c0-4.712-1.728-7.226-6.336-7.226a7.645,7.645,0,0,0-7.749,7.8V231.45h-3.979Z" transform="translate(-391.873 -120.065)" fill="#253746"/>
        <path id="Path_81" data-name="Path 81" d="M734.856,235.378l1.675-2.566a11.46,11.46,0,0,0,8.011,3.193c4.346,0,9.268-2.67,9.268-10.21v-.838c-1.1,2.88-4.607,5.236-9.529,5.236-7.017,0-11.938-5.446-11.938-12.357s4.922-12.409,11.938-12.409c4.4,0,8.378,1.99,9.687,5.183v-4.66h3.822v19.74c0,10.262-7.331,13.456-12.933,13.456a13.883,13.883,0,0,1-10-3.77m18.954-17.855a8.7,8.7,0,1,0-8.744,9.111c4.974,0,8.744-3.77,8.744-9.111" transform="translate(-428.03 -120.066)" fill="#253746"/>
        <path id="Path_82" data-name="Path 82" d="M311.093,71.494h6.336l5.341,7.54c1.99,2.775,6.126,8.8,6.126,8.8s4.189-5.969,6.126-8.744l5.341-7.592H346.7v33.929h-7.33V83.955s-1.309,2.147-3.089,4.713L328.9,99.192,321.46,88.616c-1.728-2.461-3.037-4.66-3.037-4.66v21.468h-7.33Z" transform="translate(-181.824 -41.786)" fill="#253746"/>
        <path id="Path_83" data-name="Path 83" d="M410.383,71.494h7.33V84.741h14.5V71.494h7.33v33.929h-7.33v-14.4h-14.5v14.4h-7.33Z" transform="translate(-239.856 -41.786)" fill="#253746"/>
        <path id="Path_84" data-name="Path 84" d="M490.519,100.655,493.19,95a17.587,17.587,0,0,0,11.152,3.717c2.827,0,6.283-1.309,6.283-3.979,0-2.618-3.037-3.3-6.021-4.032-6.336-1.466-12.881-3.613-12.881-10.682,0-6.545,6.127-9.792,12.619-9.792a21.477,21.477,0,0,1,12.409,3.613L514.081,79.5a18.182,18.182,0,0,0-9.739-2.723c-1.781,0-5.131.681-5.131,3.247,0,2.2,2.461,2.984,5.812,3.77,6.021,1.413,13.247,3.665,13.247,10.943,0,7.33-7.121,10.524-13.928,10.524-8.116,0-11.938-3.089-13.823-4.607" transform="translate(-286.692 -41.049)" fill="#253746"/>
        <path id="Path_85" data-name="Path 85" d="M109.2,47.358c.343-.2.709-.39,1.091-.594,1.852-.964,4.162-2.162,3.79-5.291-.41-3.534-6.159-4.77-9-4.619-3.152.167-6.873-.3-7.851-.794-.329-.163-.439-.32-.453-.376-.009-.026.012-.127.133-.285a4.767,4.767,0,0,1,1.417-.89,8.487,8.487,0,0,0,1.178-.665c.851-.619,2.852-2.073,1.6-4.757-.912-1.962-3.792-3.672-7.028-3.138A24.006,24.006,0,0,0,87.8,28.006l-.631.272c-.666.281-1.033.157-1.091.079-.017-.022-.015-.175.18-.412q.117-.138.259-.3c.822-.964,2.2-2.578,1.668-4.229a2.951,2.951,0,0,0-2-2.067c-1.748-.518-4.229.468-7.179,2.856a19.809,19.809,0,0,1-8.232,4.146A47.152,47.152,0,0,1,93,40.046a.62.62,0,0,1-.814.933,52.654,52.654,0,0,0-15.037-8.568A46.856,46.856,0,0,0,61.27,29.7a48.01,48.01,0,0,0-15.049,2.625,46.089,46.089,0,0,0-8.095,3.587q-1.693.934-3.279,1.978A48.49,48.49,0,0,1,39.5,28.425c.448-.72.916-1.431,1.4-2.128q1.127-1.647,2.359-3.206a51.557,51.557,0,0,1,9.752-9.344L54.7,12.53a.633.633,0,0,1,.759,1.012c-1.514,1.15-3.311,2.6-4.7,3.9A53.324,53.324,0,0,0,44.9,23.982q-.611.815-1.19,1.65c-.3.433-.589.876-.877,1.318a20.71,20.71,0,0,0,6.188-.069c2.066-.412,3.457-1.379,3.82-2.645a2.423,2.423,0,0,0-.764-2.465c-.577-.534-.485-.73-.419-.867a.915.915,0,0,1,.792-.508,6.792,6.792,0,0,1,2.576.357c.389.109.794.214,1.2.3a7.236,7.236,0,0,0,3.642.086c1.518-.486,2.893-1.821,2.581-3.426a2.837,2.837,0,0,0-1.331-1.778c-.365-.262-.574-.426-.642-.665a.293.293,0,0,1,.04-.288,3.472,3.472,0,0,1,2.142-.879,10.9,10.9,0,0,1,2.1.071,15.427,15.427,0,0,0,1.842.1l.081,0a7.815,7.815,0,0,0,4.21-.9,2.677,2.677,0,0,0,1.2-2.532,2.5,2.5,0,0,0-1.634-2.1c-.147-.056-.317-.108-.493-.161a2.558,2.558,0,0,1-.812-.339c.026-.059.3-.378,1.266-.673l.307-.091a4.507,4.507,0,0,0,2.686-1.6,3.054,3.054,0,0,0-.55-4.32c-1.975-1.476-4.332.171-5.223.789-.19.137-.386.273-.579.413a7.552,7.552,0,0,1-2.729,1.476,1.341,1.341,0,0,1-1.661-.727C61.823.7,59.965.166,59.753.116,56.035-.923,53.91,5.308,52.892,8.3c-.112.333-.211.62-.29.836a1.821,1.821,0,0,1-.911.977.108.108,0,0,1-.118-.013,2.9,2.9,0,0,1-.061-.578,3.206,3.206,0,0,0-1.23-2.745C49.152,5.954,47.291,5.55,44.729,8.1c-.154.153-.308.312-.465.488a11.681,11.681,0,0,0-3.01,8.551A4.035,4.035,0,0,1,40.84,19.1c-.1-.049-.264-.148-.391-.224a3.023,3.023,0,0,0-3.957.084c-1.061.931-1.889,2.889.2,7.024a11.024,11.024,0,0,1,.77,1.964c-.3.449-.6.9-.88,1.359a67.272,67.272,0,0,0-5.146,11.023A49.913,49.913,0,0,0,14.511,64.853l-.042-.06a33.262,33.262,0,0,1-3.615-7.108,31.549,31.549,0,0,1-1.9-13.425,32.129,32.129,0,0,1,1.6-7.624.634.634,0,0,1,1.206.388,30.726,30.726,0,0,0-1.243,7.331A29.89,29.89,0,0,0,12,54.723c.183.559.387,1.112.6,1.66A5.75,5.75,0,0,1,15,53.045a4.694,4.694,0,0,0,1.791-2.072,2.652,2.652,0,0,0-1.223-3.466,2.79,2.79,0,0,0-1.678-.133c-.011,0-.025,0-.036,0a1.4,1.4,0,0,1,.616-.68c.2-.124.658-.333,1.137-.553a14.9,14.9,0,0,0,3.072-1.68,3.218,3.218,0,0,0,1.282-3.089,2.727,2.727,0,0,0-1.779-2.1,3.338,3.338,0,0,0-2.067.158c-.7.214-.834.2-.94.088-.079-.087-.073-.131-.067-.164.018-.111.2-.706,1.94-1.687.352-.2.65-.364.913-.51a14.249,14.249,0,0,0,1.9-1.176,4.286,4.286,0,0,0,1.922-3.307,2.744,2.744,0,0,0-2.815-2.657.735.735,0,0,1-.356-.08.691.691,0,0,1,0-.113,3.7,3.7,0,0,1,.84-1.612c.107-.148.206-.282.3-.414a4.533,4.533,0,0,0,.943-3.365,2.169,2.169,0,0,0-1.273-1.715,3.268,3.268,0,0,0-2.958.466,7.546,7.546,0,0,0-2.744,3.472l-.115.286c-.313.784-.839,2.091-1.316,2.347-.05.027-.178.086-.247.055a.7.7,0,0,1-.253-.491c-.027-.175-.044-.355-.066-.535a4.3,4.3,0,0,0-.536-1.945,2.81,2.81,0,0,0-2.66-1.312,3.2,3.2,0,0,0-2.674,1.915c-.881,2.149-.3,4.3.256,6.376.491,1.82.95,3.54.482,5.222l-.026.085a2.559,2.559,0,0,1-.165.482c-.071-.068-.166-.171-.243-.25a4.285,4.285,0,0,0-1.717-1.23,3.388,3.388,0,0,0-3.174.709A3.919,3.919,0,0,0,0,41.347c.041,1.57.991,3.156,2.823,4.722.129.11.29.248.482.406a17.839,17.839,0,0,1,3.337,3.279,1.281,1.281,0,0,1,.206.864c-.009.019-.032.085-.207.141-.122.042-.242.076-.359.108A2.628,2.628,0,0,0,4.42,52.245a2.773,2.773,0,0,0,.74,3.313.837.837,0,0,0,.068.065,14.846,14.846,0,0,0,3.553,2.533q.256.822.554,1.629.357.968.773,1.912c.057.132.113.258.172.387a32.667,32.667,0,0,0,2.67,4.809c.23.338.464.667.711,1a50.086,50.086,0,0,0,8.19,41.6C38.4,132.254,70.9,137.039,92.946,119.318a.853.853,0,0,0-1.041-1.351q-1.227.9-2.507,1.725a51.273,51.273,0,0,1-8.061,4.217C61.3,132.269,37.472,125.992,24.5,108.5q-.5-.67-.97-1.35a37.564,37.564,0,0,1,1.8-7.859,30.651,30.651,0,0,1,4.668-8.71,30.278,30.278,0,0,1,4.489-4.618.634.634,0,0,1,.822.966,28.862,28.862,0,0,0-4.045,4.585A30.123,30.123,0,0,0,26.474,103.2c-.095.49-.173.98-.244,1.471a15.2,15.2,0,0,1,3.87-.036c.116.013.237.025.355.042a4.244,4.244,0,0,0,3.1-.49,3.1,3.1,0,0,0,1.272-1.921,2.9,2.9,0,0,0-.476-2.2,3.275,3.275,0,0,0-2.764-1.294c-.337-.026-.759-.061-.812-.167a.427.427,0,0,1-.031-.091,3.048,3.048,0,0,1,2.343-.561c.371.024.763.073,1.176.123a8.691,8.691,0,0,0,3.562-.06,3.081,3.081,0,0,0,2.252-3.586,3.924,3.924,0,0,0-2.718-2.613L37.3,91.8a3.141,3.141,0,0,1,1.2-.344,36.423,36.423,0,0,1,4.347-.207c.242,0,.455,0,.668,0a8.6,8.6,0,0,0,3.339-.419,3.65,3.65,0,0,0,2.343-3.76,3.226,3.226,0,0,0-2.6-2.817c-.18-.051-.372-.085-.569-.121a2.2,2.2,0,0,1-.681-.192l0-.012a.435.435,0,0,1-.019-.107c-.026-.465.429-.977.868-1.471.127-.142.25-.283.365-.421.076-.1.163-.2.253-.3.765-.9,1.815-2.135,1.543-3.592a2.56,2.56,0,0,0-1.366-1.887,4.154,4.154,0,0,0-3.66.289,10.282,10.282,0,0,0-.939.561c-.457.3-1.414.918-1.734.818-.048-.016-.135-.12-.217-.321a6.652,6.652,0,0,1-.24-.9c-.239-1.039-.533-2.334-1.711-2.886-1.294-.608-2.643-.057-3.519,1.447a8.691,8.691,0,0,0-.843,3.952c-.013.19-.023.375-.034.556a2.814,2.814,0,0,1-.5,1.671.4.4,0,0,1-.309.157.426.426,0,0,1-.309-.194,6.087,6.087,0,0,1-.38-.767c-.567-1.254-1.515-3.352-3.569-3a2.732,2.732,0,0,0-1.9,1.211,4.888,4.888,0,0,0-.38,3.493c.588,2.374.837,5.33.271,5.936-.02.019-.042.047-.184.02-.383-.064-.608-.5-.936-1.209-.082-.175-.16-.352-.246-.508a2.805,2.805,0,0,0-1.735-1.436,2.72,2.72,0,0,0-2.152.288c-1.917,1.163-2.142,3.722-.732,8.063.283.865.584,1.69.876,2.484.435,1.188.841,2.31,1.127,3.42-.149.408-.3.818-.43,1.231-.057.168-.109.339-.161.51-.322,1.036-.59,2.087-.816,3.148a47.594,47.594,0,0,1,2.327-52.141c.462-.108.922-.224,1.391-.289A18.306,18.306,0,0,1,27.8,51.58c.548,0,1.1.011,1.642.035.3.014.6.036.9.057,1.451,1.606,2.275,4.19,2.713,8.335.284,2.7,1.968,3.778,3.322,3.881A2.913,2.913,0,0,0,39.453,61.7,7.381,7.381,0,0,0,39.5,59a3.368,3.368,0,0,1,.243-2.4.835.835,0,0,1,.812-.357,1.4,1.4,0,0,1,.988.985c1.807,4.948,3.456,8.493,5.621,9.716a3.763,3.763,0,0,0,3.409.373,3.451,3.451,0,0,0,1.9-2.625c.027-.135.049-.27.073-.409.088-.479.129-.651.25-.71.286-.143,1.028.387,1.589,1.125a5.938,5.938,0,0,1,1.044,3.6,9.418,9.418,0,0,0,1.235,5.421,3.784,3.784,0,0,0,4.23,1.647,2.911,2.911,0,0,0,1.869-3.131c-.011-.193-.034-.391-.059-.6-.1-.887-.131-1.449.241-1.769.446-.383,1.408.637,1.6.844.157.177.315.355.468.531a10.382,10.382,0,0,0,2.12,2.014,4.572,4.572,0,0,0,3.6.913,2.651,2.651,0,0,0,1.7-1.309c.495-.911,1.348-3.345-1.376-6.192a12.49,12.49,0,0,0-1.808-1.481c-.735-.529-1.494-1.074-1.518-1.5-.024-.307.4-.517,1.3-.844a6.108,6.108,0,0,0,.91-.376c1.66-.883,2.561-2.128,2.543-3.5A3.719,3.719,0,0,0,71.3,56.4a7.074,7.074,0,0,0-4.337-1.789,19.944,19.944,0,0,0-5.078.66c-1.163.25-3.889.831-4.16.4-.105-.157-.107-.356.91-1.064.108-.077.212-.148.294-.209l.172-.126c.891-.666,2.113-1.578,1.927-3.216-.2-1.768-2.005-2.7-3.68-2.7a13,13,0,0,0-4.288.927c-.439.153-.868.32-1.286.485-.494.2-.962.379-1.445.533a.71.71,0,0,1-.68-.1c-.038-.034-.117-.107-.06-.328.071-.282.449-.517.852-.764a6.506,6.506,0,0,0,.688-.473,3.751,3.751,0,0,0,.672-5.125c-1.031-1.394-3.33-2.3-6.4-.254a39,39,0,0,1-10.3,4.874c.384.11.769.214,1.149.335a67.2,67.2,0,0,1,16.06,7.909c2.423,1.606,5.647,4.005,7.962,5.846a.62.62,0,1,1-.767.974c-2.314-1.721-5.6-4.011-8.029-5.512C45.533,54.134,39.11,51,32.278,49.713a26.582,26.582,0,0,0-5.451-.508c-.23,0-.46.013-.69.025A47.662,47.662,0,0,1,68.646,32.605a7.939,7.939,0,0,1,.2,5.5c-.76,3.125-.462,5.77.817,7.257a3.492,3.492,0,0,0,3.072,1.21c1.855-.164,3-1.947,3.143-4.892a.673.673,0,0,1,.076-.324,1.184,1.184,0,0,1,.71.3c.844.613,1.346,2.22,1.518,3.416.088.633.146,1.291.2,1.99.209,2.506.428,5.1,2.376,6.7a4.288,4.288,0,0,0,3.515.967,3.216,3.216,0,0,0,2.2-2.028,5.1,5.1,0,0,0,.17-2.578c-.134-1.336-.094-1.79.4-2.034.6-.3,1.946.774,2.7,1.894,1.389,2.068,1.744,4.729,2.088,7.3.1.755.2,1.531.329,2.282a4.117,4.117,0,0,0,3.131,3.529c2.8.453,3.434-1.985,3.853-3.6.52-2,.792-2.343,1.715-2.181,1.015.18,2.012,1.8,2.6,2.769l.04.065a6.935,6.935,0,0,0,3.613,3.254,3.249,3.249,0,0,0,2.749-.342,4.551,4.551,0,0,0,2.017-3.144c.509-3.337-1.209-6.153-2.467-8.212a10.509,10.509,0,0,1-1.128-2.157,1.952,1.952,0,0,1,.912-2.183" transform="translate(0 0)" fill="#b0d32a"/>
      </g>
    </g>
  </g>
</svg>
