<svg xmlns="http://www.w3.org/2000/svg" width="115.465" height="115.457" viewBox="0 0 115.465 115.457">
  <g id="network-icon" transform="translate(-0.005)">
    <path id="Path_103" data-name="Path 103" d="M789.812,233.085l-1.294,5.091a1.8,1.8,0,0,0,2.192,2.192l4.677-1.189a17.831,17.831,0,0,0,10.162,3.155,18.083,18.083,0,1,0-15.737-9.25Zm15.737-23.224a14.433,14.433,0,0,1,0,28.866,14.288,14.288,0,0,1-8.7-2.939,1.81,1.81,0,0,0-1.089-.366,1.769,1.769,0,0,0-.444.056l-2.551.649.727-2.87a1.8,1.8,0,0,0-.213-1.391,14.41,14.41,0,0,1,12.272-22Z" transform="translate(-711.73 -186.408)" fill="#ffc72c"/>
    <path id="Path_104" data-name="Path 104" d="M959.858,376.8a1.8,1.8,0,1,1-1.8-1.8,1.8,1.8,0,0,1,1.8,1.8" transform="translate(-864.236 -338.918)" fill="#ffc72c"/>
    <path id="Path_105" data-name="Path 105" d="M884.858,376.8a1.8,1.8,0,1,1-1.8-1.8,1.8,1.8,0,0,1,1.8,1.8" transform="translate(-796.452 -338.918)" fill="#ffc72c"/>
    <path id="Path_106" data-name="Path 106" d="M1034.908,376.8a1.8,1.8,0,1,1-1.8-1.8,1.8,1.8,0,0,1,1.8,1.8" transform="translate(-932.065 -338.918)" fill="#ffc72c"/>
    <path id="Path_107" data-name="Path 107" d="M55.544,242.314a17.84,17.84,0,0,0,10.163-3.155l4.675,1.189a1.8,1.8,0,0,0,2.194-2.194l-1.294-5.091a18.03,18.03,0,1,0-15.737,9.252Zm0-32.474a14.408,14.408,0,0,1,12.27,22,1.8,1.8,0,0,0-.215,1.393l.729,2.868-2.551-.648a1.813,1.813,0,0,0-1.535.31,14.288,14.288,0,0,1-8.7,2.939,14.433,14.433,0,0,1,0-28.866Z" transform="translate(-33.89 -186.387)" fill="#ffc72c"/>
    <path id="Path_108" data-name="Path 108" d="M209.858,376.8a1.8,1.8,0,1,1-1.8-1.8,1.8,1.8,0,0,1,1.8,1.8" transform="translate(-186.4 -338.918)" fill="#ffc72c"/>
    <path id="Path_109" data-name="Path 109" d="M284.858,376.8a1.8,1.8,0,1,1-1.8-1.8,1.8,1.8,0,0,1,1.8,1.8" transform="translate(-254.184 -338.918)" fill="#ffc72c"/>
    <path id="Path_110" data-name="Path 110" d="M134.858,376.8a1.8,1.8,0,1,1-1.8-1.8,1.8,1.8,0,0,1,1.8,1.8" transform="translate(-118.617 -338.918)" fill="#ffc72c"/>
    <path id="Path_111" data-name="Path 111" d="M584.858,170.554a1.8,1.8,0,1,1-1.8-1.8,1.8,1.8,0,0,1,1.8,1.8" transform="translate(-525.318 -152.513)" fill="#ffc72c"/>
    <path id="Path_112" data-name="Path 112" d="M659.858,170.554a1.8,1.8,0,1,1-1.8-1.8,1.8,1.8,0,0,1,1.8,1.8" transform="translate(-593.102 -152.513)" fill="#ffc72c"/>
    <path id="Path_113" data-name="Path 113" d="M509.858,170.554a1.8,1.8,0,1,1-1.8-1.8,1.8,1.8,0,0,1,1.8,1.8" transform="translate(-457.534 -152.513)" fill="#ffc72c"/>
    <path id="Path_114" data-name="Path 114" d="M425.91,35.47,429,40.619a1.8,1.8,0,0,0,3.092,0l3.089-5.149a18.041,18.041,0,1,0-9.27,0Zm4.635-31.862a14.43,14.43,0,0,1,3.091,28.525,1.807,1.807,0,0,0-1.162.834l-1.929,3.217-1.93-3.217a1.809,1.809,0,0,0-1.162-.834,14.43,14.43,0,0,1,3.092-28.525Z" transform="translate(-372.809 0)" fill="#ffc72c"/>
    <path id="Path_115" data-name="Path 115" d="M111.118,544.641l-12.241-2.446a1.809,1.809,0,0,1-1.45-1.77v-2.187a15.2,15.2,0,0,0,5.412-11.621v-8.492A12.644,12.644,0,0,0,90.211,505.5H86.6a12.644,12.644,0,0,0-12.629,12.629v7.18l-5.766-1.153a1.809,1.809,0,0,1-1.45-1.77V520.2a15.2,15.2,0,0,0,5.412-11.62v-8.492a12.644,12.644,0,0,0-12.629-12.629H55.933A12.643,12.643,0,0,0,43.3,500.083V509.1a14.32,14.32,0,0,0,4.382,10.359c.33.321.675.622,1.03.907v2.012a1.81,1.81,0,0,1-1.45,1.77L41.5,525.3v-7.18a12.643,12.643,0,0,0-12.629-12.629H25.263a12.643,12.643,0,0,0-12.629,12.629v9.021A14.32,14.32,0,0,0,17.016,537.5c.33.321.675.622,1.03.907v2.012a1.81,1.81,0,0,1-1.45,1.77L4.357,544.638a5.428,5.428,0,0,0-4.352,5.308V554.2a1.8,1.8,0,0,0,1.8,1.8H52.324a1.8,1.8,0,0,0,1.8-1.8v-4.258a5.426,5.426,0,0,0-4.352-5.308l-12.239-2.446a1.809,1.809,0,0,1-1.45-1.77v-2.188a15.19,15.19,0,0,0,5.2-9.21l6.682-1.335a5.42,5.42,0,0,0,4.341-5.2,14.409,14.409,0,0,0,5.416,1.046c.15,0,.3,0,.449-.007a13.676,13.676,0,0,0,4.972-1.115,5.423,5.423,0,0,0,4.348,5.275l6.608,1.321a14.3,14.3,0,0,0,4.249,8.492c.332.321.677.624,1.03.909v2.011a1.81,1.81,0,0,1-1.45,1.77L65.7,544.637a5.427,5.427,0,0,0-4.35,5.308V554.2a1.8,1.8,0,0,0,1.8,1.8h50.515a1.8,1.8,0,0,0,1.8-1.8v-4.258a5.427,5.427,0,0,0-4.35-5.308Zm-74.288,1.09,12.239,2.446a1.809,1.809,0,0,1,1.45,1.77V552.4H3.613v-2.454a1.81,1.81,0,0,1,1.45-1.77L17.3,545.731a5.42,5.42,0,0,0,4.341-5.2,14.409,14.409,0,0,0,5.416,1.046c.15,0,.3,0,.449-.007a13.676,13.676,0,0,0,4.972-1.115,5.423,5.423,0,0,0,4.348,5.275Zm-9.43-7.767a10.825,10.825,0,0,1-11.158-10.819v-9.021a9.031,9.031,0,0,1,9.021-9.021h3.608a9.031,9.031,0,0,1,9.021,9.021v8.492c0,6.085-4.7,11.175-10.491,11.35Zm30.67-18.041A10.826,10.826,0,0,1,46.912,509.1v-9.021a9.031,9.031,0,0,1,9.021-9.021H59.54a9.031,9.031,0,0,1,9.021,9.021v8.492c0,6.085-4.7,11.175-10.491,11.35Zm19.511,7.222v-9.021A9.031,9.031,0,0,1,86.6,509.1H90.21a9.031,9.031,0,0,1,9.021,9.021v8.492c0,6.085-4.7,11.175-10.489,11.35a10.826,10.826,0,0,1-11.158-10.82ZM111.859,552.4H64.953v-2.454a1.81,1.81,0,0,1,1.45-1.77l12.241-2.446a5.42,5.42,0,0,0,4.341-5.2,14.416,14.416,0,0,0,5.416,1.046c.15,0,.3,0,.449-.007a13.675,13.675,0,0,0,4.97-1.115,5.425,5.425,0,0,0,4.348,5.275l12.241,2.446a1.809,1.809,0,0,1,1.45,1.77Z" transform="translate(0 -440.552)" fill="#ffc72c"/>
  </g>
</svg>
