
<svg id="shared-values-icon" xmlns="http://www.w3.org/2000/svg" width="115.452" height="115.457" viewBox="0 0 115.452 115.457">
  <path id="Path_116" data-name="Path 116" d="M428.026,702.77a5.356,5.356,0,0,0-1.8.332v-.332a5.394,5.394,0,0,0-7.425-5.015,5.382,5.382,0,0,0-10.405,0,5.394,5.394,0,0,0-7.425,5.015v16.236a1.8,1.8,0,0,0,3.608,0V702.77a1.8,1.8,0,1,1,3.608,0v10.824a1.8,1.8,0,1,0,3.608,0V699.162a1.8,1.8,0,1,1,3.608,0v14.432a1.8,1.8,0,1,0,3.608,0V702.77a1.8,1.8,0,1,1,3.608,0v10.824a1.8,1.8,0,1,0,3.608,0v-5.412a1.8,1.8,0,1,1,3.608,0v16.236a11.3,11.3,0,0,1-1.615,5.507,14.772,14.772,0,0,0-1.993,7.121v1.8H402.77v-1.8c0-3.453-1.793-5.246-3.234-6.688-1.265-1.265-2.178-2.178-2.178-4.136V713.594a1.8,1.8,0,1,0,0-3.608h-1.8a1.8,1.8,0,0,0-1.8,1.8v14.432c0,3.453,1.793,5.246,3.234,6.688,1.265,1.265,2.178,2.178,2.178,4.136v3.608a1.8,1.8,0,0,0,1.8,1.8h27.06a1.8,1.8,0,0,0,1.8-1.8v-3.608a11.3,11.3,0,0,1,1.615-5.507,14.772,14.772,0,0,0,1.993-7.121V708.182A5.419,5.419,0,0,0,428.026,702.77Z" transform="translate(-355.866 -627.002)" fill="#ffc72c"/>
  <path id="Path_117" data-name="Path 117" d="M430.2,9.548c-1.265-1.265-2.178-2.178-2.178-4.136V1.8a1.8,1.8,0,0,0-1.8-1.8h-27.06a1.8,1.8,0,0,0-1.8,1.8V5.412a11.3,11.3,0,0,1-1.615,5.507,14.772,14.772,0,0,0-1.993,7.121V34.276a5.419,5.419,0,0,0,5.412,5.412,5.356,5.356,0,0,0,1.8-.332v.332a5.394,5.394,0,0,0,7.425,5.015,5.382,5.382,0,0,0,10.405,0,5.394,5.394,0,0,0,7.425-5.015V23.452a1.8,1.8,0,0,0-3.608,0V39.688a1.8,1.8,0,1,1-3.608,0V28.864a1.8,1.8,0,0,0-3.608,0V43.3a1.8,1.8,0,0,1-3.608,0V28.864a1.8,1.8,0,0,0-3.608,0V39.688a1.8,1.8,0,0,1-3.608,0V28.864a1.8,1.8,0,1,0-3.608,0v5.412a1.8,1.8,0,0,1-3.608,0V18.04a11.3,11.3,0,0,1,1.615-5.507,14.772,14.772,0,0,0,1.993-7.121v-1.8h23.452v1.8c0,3.453,1.793,5.246,3.234,6.688,1.265,1.265,2.178,2.178,2.178,4.136V28.864a1.8,1.8,0,1,0,0,3.608h1.8a1.8,1.8,0,0,0,1.8-1.8V16.236C433.435,12.783,431.642,10.99,430.2,9.548Z" transform="translate(-355.863 0)" fill="#ffc72c"/>
  <path id="Path_118" data-name="Path 118" d="M740.6,397.358H737a11.3,11.3,0,0,1-5.508-1.615,14.772,14.772,0,0,0-7.121-1.993H708.132a5.419,5.419,0,0,0-5.412,5.412,5.355,5.355,0,0,0,.332,1.8h-.332a5.394,5.394,0,0,0-5.015,7.425,5.382,5.382,0,0,0,0,10.405,5.394,5.394,0,0,0,5.015,7.425h16.236a1.8,1.8,0,0,0,0-3.608H702.72a1.8,1.8,0,1,1,0-3.608h10.824a1.8,1.8,0,0,0,0-3.608H699.112a1.8,1.8,0,0,1,0-3.608h14.432a1.8,1.8,0,0,0,0-3.608H702.72a1.8,1.8,0,1,1,0-3.608h10.824a1.8,1.8,0,0,0,0-3.608h-5.412a1.8,1.8,0,1,1,0-3.608h16.236a11.3,11.3,0,0,1,5.508,1.615A14.772,14.772,0,0,0,737,400.966h1.8v23.452H737c-3.453,0-5.246,1.793-6.688,3.234-1.265,1.265-2.177,2.178-4.136,2.178H713.544a1.8,1.8,0,0,0-3.608,0v1.8a1.8,1.8,0,0,0,1.8,1.8h14.432c3.453,0,5.246-1.793,6.688-3.234,1.265-1.265,2.178-2.178,4.137-2.178H740.6a1.8,1.8,0,0,0,1.8-1.8v-27.06A1.8,1.8,0,0,0,740.6,397.358Z" transform="translate(-626.957 -355.866)" fill="#ffc72c"/>
  <path id="Path_119" data-name="Path 119" d="M48.708,413.594a5.4,5.4,0,0,0-4-5.2,5.395,5.395,0,0,0-5.015-7.425H23.452a1.8,1.8,0,0,0,0,3.608H39.688a1.8,1.8,0,1,1,0,3.608H28.864a1.8,1.8,0,0,0,0,3.608H43.3a1.8,1.8,0,0,1,0,3.608H28.864a1.8,1.8,0,1,0,0,3.608H39.688a1.8,1.8,0,0,1,0,3.608H28.864a1.8,1.8,0,0,0,0,3.608h5.412a1.8,1.8,0,1,1,0,3.608H18.04a11.3,11.3,0,0,1-5.507-1.615,14.772,14.772,0,0,0-7.121-1.993h-1.8V402.77h1.8c3.453,0,5.246-1.793,6.688-3.234,1.265-1.265,2.178-2.178,4.136-2.178H28.864a1.8,1.8,0,1,0,3.608,0v-1.8a1.8,1.8,0,0,0-1.8-1.8H16.236c-3.453,0-5.246,1.793-6.688,3.234-1.265,1.265-2.178,2.178-4.136,2.178H1.8a1.8,1.8,0,0,0-1.8,1.8v27.06a1.8,1.8,0,0,0,1.8,1.8H5.412a11.3,11.3,0,0,1,5.507,1.615,14.772,14.772,0,0,0,7.121,1.993H34.276a5.419,5.419,0,0,0,5.412-5.412,5.356,5.356,0,0,0-.332-1.8h.332A5.395,5.395,0,0,0,44.7,418.8,5.4,5.4,0,0,0,48.708,413.594Z" transform="translate(0 -355.866)" fill="#ffc72c"/>
</svg>
