<svg xmlns="http://www.w3.org/2000/svg" width="95.562" height="117.611" viewBox="0 0 95.562 117.611">
  <g id="tools-icon" transform="translate(-112.45 0.003)">
    <path id="Path_120" data-name="Path 120" d="M202.5,262.5h-5.513a1.838,1.838,0,1,0,0,3.675H202.5a1.841,1.841,0,0,1,1.838,1.838v53.292H116.125V268.013a1.841,1.841,0,0,1,1.838-1.838h53.292a1.838,1.838,0,0,0,0-3.675H117.963a5.52,5.52,0,0,0-5.513,5.513v66.156a5.52,5.52,0,0,0,5.513,5.513h11.026a1.838,1.838,0,1,0,0-3.675H117.963a1.841,1.841,0,0,1-1.838-1.838v-9.188h88.208v9.188a1.841,1.841,0,0,1-1.838,1.838H136.34a1.838,1.838,0,1,0,0,3.675h16.447a20.35,20.35,0,0,1-3.949,10.291l-.551.735H145.53a1.838,1.838,0,1,0,0,3.675h29.4a1.838,1.838,0,0,0,0-3.675h-2.757l-.551-.735a20.347,20.347,0,0,1-3.949-10.291H202.5a5.52,5.52,0,0,0,5.513-5.513V268.013A5.52,5.52,0,0,0,202.5,262.5Zm-34.823,88.208H152.788a24.089,24.089,0,0,0,3.692-11.026h7.5a24.1,24.1,0,0,0,3.692,11.026Z" transform="translate(0 -236.775)" fill="#ffc72c"/>
    <path id="Path_121" data-name="Path 121" d="M736.763,44.1V67.557l-1.645,3.288a1.836,1.836,0,0,0,0,1.645l3.675,7.351a1.837,1.837,0,0,0,1.645,1.016h3.675a1.839,1.839,0,0,0,1.645-1.016l3.675-7.351a1.837,1.837,0,0,0,0-1.645l-1.645-3.287V44.1a5.514,5.514,0,0,0,1.838-10.712V7.348a7.351,7.351,0,1,0-14.7,0V33.39A5.514,5.514,0,0,0,736.763,44.1Zm7.544,24.711,1.426,2.854-2.756,5.513h-1.4l-2.756-5.513,1.426-2.854a1.849,1.849,0,0,0,.193-.822V44.1h3.675v23.89a1.846,1.846,0,0,0,.193.822Zm-7.544-32.062a1.838,1.838,0,0,0,1.838-1.838V7.348a3.675,3.675,0,1,1,7.351,0V34.913a1.838,1.838,0,0,0,1.838,1.838,1.838,1.838,0,1,1,0,3.675H736.763a1.838,1.838,0,0,1,0-3.675Z" transform="translate(-558.152)" fill="#ffc72c"/>
    <path id="Path_122" data-name="Path 122" d="M401.1,539.7a7.351,7.351,0,1,0-7.351-7.351A7.358,7.358,0,0,0,401.1,539.7Zm0-11.026a3.675,3.675,0,1,1-3.675,3.675A3.679,3.679,0,0,1,401.1,528.675Z" transform="translate(-253.73 -473.548)" fill="#ffc72c"/>
    <path id="Path_123" data-name="Path 123" d="M257.9,385.459a1.84,1.84,0,0,0,1.979.182,12.7,12.7,0,0,1,2.032-.849,1.833,1.833,0,0,0,1.27-1.529l.564-4.585h4.1l.564,4.585a1.839,1.839,0,1,0,3.65-.448l-.764-6.2A1.839,1.839,0,0,0,269.468,375h-7.351a1.838,1.838,0,0,0-1.825,1.613l-.625,5.077c-.136.055-.27.112-.4.169l-4.036-3.15a1.834,1.834,0,0,0-2.43.149l-5.2,5.2a1.836,1.836,0,0,0-.149,2.43l3.15,4.036c-.059.134-.114.268-.169.4l-5.079.625a1.839,1.839,0,0,0-1.613,1.825v7.351a1.838,1.838,0,0,0,1.613,1.825l5.077.625c.055.134.112.268.169.4l-3.15,4.034a1.836,1.836,0,0,0,.149,2.43l5.2,5.2a1.837,1.837,0,0,0,2.6-2.6l-4.048-4.048,2.848-3.648a1.837,1.837,0,0,0,.184-1.977,12.905,12.905,0,0,1-.851-2.034,1.836,1.836,0,0,0-1.529-1.27l-4.585-.564V395l4.585-.564a1.841,1.841,0,0,0,1.529-1.27,13.108,13.108,0,0,1,.851-2.034,1.834,1.834,0,0,0-.184-1.975l-2.848-3.648,2.9-2.9,3.65,2.848Z" transform="translate(-118.421 -338.252)" fill="#ffc72c"/>
    <path id="Path_124" data-name="Path 124" d="M431.4,433.111a1.84,1.84,0,0,0,1.613-1.825v-7.351a1.838,1.838,0,0,0-1.613-1.825l-5.079-.625c-.053-.134-.11-.268-.169-.4l3.15-4.036a1.836,1.836,0,0,0-.149-2.43l-5.2-5.2a1.837,1.837,0,0,0-2.6,2.6l4.048,4.048-2.848,3.648a1.834,1.834,0,0,0-.184,1.975,13.128,13.128,0,0,1,.851,2.034,1.837,1.837,0,0,0,1.529,1.27l4.585.564v4.1l-4.585.564a1.838,1.838,0,0,0-1.529,1.272,13,13,0,0,1-.851,2.032,1.838,1.838,0,0,0,.184,1.977l2.848,3.65-2.9,2.9-3.648-2.848a1.841,1.841,0,0,0-1.977-.184,12.9,12.9,0,0,1-2.034.851,1.836,1.836,0,0,0-1.27,1.529l-.564,4.585h-4.1l-.564-4.585a1.839,1.839,0,0,0-3.65.448l.765,6.2a1.84,1.84,0,0,0,1.825,1.613h7.351a1.838,1.838,0,0,0,1.825-1.613l.625-5.077c.134-.055.268-.112.4-.169l4.034,3.15a1.838,1.838,0,0,0,2.43-.149l5.2-5.2a1.836,1.836,0,0,0,.149-2.43l-3.15-4.036c.059-.134.114-.27.169-.4l5.077-.625Z" transform="translate(-263.594 -368.808)" fill="#ffc72c"/>
  </g>
</svg>
