<?xml version="1.0" encoding="UTF-8" standalone="no"?>
<svg width="1205px" height="401px" viewBox="0 0 1205 401" version="1.1" xmlns="http://www.w3.org/2000/svg" xmlns:xlink="http://www.w3.org/1999/xlink" xmlns:sketch="http://www.bohemiancoding.com/sketch/ns">
    <!-- Generator: Sketch 3.2.2 (9983) - http://www.bohemiancoding.com/sketch -->
    <title>Group</title>
    <desc>Created with Sketch.</desc>
    <defs></defs>
    <g id="Page-1" stroke="none" stroke-width="1" fill="none" fill-rule="evenodd" sketch:type="MSPage">
        <g id="Group" sketch:type="MSLayerGroup">
            <g sketch:type="MSShapeGroup">
                <g>
                    <g>
                        <g>
                            <g>
                                <rect id="Rectangle-1" fill="#E26161" x="0" y="0" width="401.666667" height="401"></rect>
                                <rect id="Rectangle-1" fill="#617FE2" x="401.666667" y="0" width="401.666667" height="401"></rect>
                                <rect id="Rectangle-1" fill="#E29E61" x="803.333333" y="0" width="401.666667" height="401"></rect>
                                <path d="M179.079067,275.75968 C196.5596,275.75968 211.469467,266.00736 217.896133,252.40544 C218.1532,269.34368 226.6364,275.2464 235.8908,275.2464 C241.2892,275.2464 245.9164,273.44992 249.515333,271.65344 L251.3148,258.82144 C247.715867,260.36128 244.374,261.38784 241.032133,261.38784 C235.376667,261.38784 232.806,258.30816 233.063067,248.81248 L234.605467,197.99776 C235.376667,169.51072 220.209733,152.82912 192.446533,152.82912 C177.793733,152.82912 164.683333,156.93536 152.344133,164.12128 L156.4572,179.77632 C165.197467,173.61696 177.793733,168.48416 189.875867,168.48416 C208.8988,168.48416 217.896133,178.74976 217.124933,199.79424 L216.867867,204.6704 C212.497733,204.15712 207.870533,203.90048 202.986267,203.90048 C161.341467,203.90048 142.832667,220.58208 142.832667,242.39648 C142.832667,261.90112 156.200133,275.75968 179.079067,275.75968 L179.079067,275.75968 Z M182.678,261.38784 C166.739867,261.38784 160.056133,252.40544 160.056133,241.36992 C160.056133,228.02464 170.3388,215.96256 202.472133,215.96256 C207.099333,215.96256 211.9836,216.2192 216.6108,216.73248 L216.353733,228.02464 C215.582533,247.27264 201.1868,261.38784 182.678,261.38784 L182.678,261.38784 Z" id="a" opacity="0.28358209" fill="#000000"></path>
                                <path d="M662.75,214.58312 C662.75,180.19336 641.9276,156.83912 612.364933,156.83912 C595.141467,156.83912 581.516933,165.30824 572.262533,173.52072 L572.262533,121.4228 C572.262533,110.64392 572.5196,96.27208 573.033733,91.9092 C567.1212,92.67912 559.923333,93.70568 553.2396,94.21896 C554.267867,106.0244 554.524933,120.1396 554.524933,137.33448 L554.524933,236.39752 C554.524933,250.51272 554.0108,264.88456 552.982533,278.99976 L557.0956,280.28296 L569.177733,270.78728 C576.118533,276.43336 586.915333,280.79624 599.768667,280.79624 C635.758,280.79624 662.75,251.28264 662.75,214.58312 L662.75,214.58312 Z M645.0124,216.89288 C645.0124,242.81352 627.017733,265.1412 601.311067,265.1412 C589.228933,265.1412 579.717467,261.80488 572.262533,255.90216 L572.262533,189.94568 C581.0028,180.45 593.856133,172.49416 607.9948,172.49416 C631.387867,172.49416 645.0124,189.94568 645.0124,216.89288 L645.0124,216.89288 Z" id="b" opacity="0.28358209" fill="#000000"></path>
                                <path d="M1043.17653,160.36792 C1033.92213,153.69528 1020.2976,148.81912 1005.38773,148.81912 C968.370133,148.81912 943.434667,177.81944 943.434667,213.4924 C943.434667,247.11224 968.113067,272.77624 1003.07413,272.77624 C1019.5264,272.77624 1030.06613,268.92664 1042.40533,260.71416 L1043.4336,241.97944 C1031.60853,252.24504 1020.55467,257.1212 1005.13067,257.1212 C980.9664,257.1212 960.9152,240.4396 960.9152,210.66936 C960.9152,185.51864 978.138667,164.7308 1004.35947,164.7308 C1017.46987,164.7308 1029.29493,169.35032 1038.0352,176.2796 L1043.17653,160.36792 Z" id="c" opacity="0.28358209" fill="#000000"></path>
                            </g>
                        </g>
                    </g>
                </g>
            </g>
        </g>
    </g>
</svg>