<?xml version="1.0" encoding="utf-8"?>
<!-- Generator: Adobe Illustrator 23.1.1, SVG Export Plug-In . SVG Version: 6.00 Build 0)  -->
<svg version="1.1" id="Layer_1" xmlns="http://www.w3.org/2000/svg" xmlns:xlink="http://www.w3.org/1999/xlink" x="0px" y="0px"
	 viewBox="0 0 1024.6 1325.2" style="enable-background:new 0 0 1024.6 1325.2;" xml:space="preserve">
<style type="text/css">
	.st0{fill:none;}
	.st1{fill:#3C9939;}
	.st2{fill:#7C411E;}
	.st3{fill:#12491D;}
	.st4{fill:#42A83B;}
	.st5{fill:#BE894A;}
</style>
<rect x="0.4" class="st0" width="1024" height="1325.2"/>
<g>
	<g>
		<path class="st4" d="M196.3,460.4l-1.7-1l8.4-14.5V248.5h-9v64.9l8.7,15l-1.7,1c-2.2,1.3-4.6,2.1-6.9,2.4v993.4h9V462.8
			C200.7,462.4,198.4,461.6,196.3,460.4z"/>
		<path class="st4" d="M697.3,460.4l-1.7-1l8.4-14.5V248.5h-9v64.9l8.7,15l-1.7,1c-2.2,1.3-4.6,2.1-6.9,2.4v993.4h9V462.8
			C701.7,462.4,699.4,461.6,697.3,460.4z"/>
		<path class="st4" d="M294.3,516.4l-1.7-1l4.4-7.6V374.5h-9v950.7h9V517.7C296.1,517.3,295.2,516.9,294.3,516.4z"/>
		<path class="st4" d="M795.3,516.4l-1.7-1l4.4-7.6V374.5h-9v950.7h9V517.7C797.1,517.3,796.2,516.9,795.3,516.4z"/>
		<path class="st4" d="M387.3,403.4l-1.7-1l5.4-9.3v-75.6h-9v153.6l3.7,6.4l-1.7,1c-0.6,0.4-1.3,0.7-1.9,1v845.8h9V405.1
			C389.7,404.7,388.5,404.1,387.3,403.4z"/>
		<path class="st4" d="M888.3,403.4l-1.7-1l5.4-9.3v-75.6h-9v153.6l3.7,6.4l-1.7,1c-0.6,0.4-1.3,0.7-1.9,1v845.8h9V405.1
			C890.7,404.7,889.5,404.1,888.3,403.4z"/>
		<path class="st4" d="M118.3,534.4l-1.7-1l5.4-9.3V329.5h-9v98.8l4.7,8.1l-1.7,1c-1,0.6-1.9,1-2.9,1.4v886.4h9V536.1
			C120.7,535.7,119.5,535.1,118.3,534.4z"/>
		<path class="st4" d="M619.3,534.4l-1.7-1l5.4-9.3V329.5h-9v98.8l4.7,8.1l-1.7,1c-1,0.6-1.9,1-2.9,1.4v886.4h9V536.1
			C621.7,535.7,620.5,535.1,619.3,534.4z"/>
		<path class="st4" d="M481.3,347.4l-1.7-1l5.4-9.3v-88.6h-9v213.9l8.7,15l-1.7,1c-2.2,1.3-4.6,2.1-6.9,2.4v844.4h9V349.1
			C483.7,348.7,482.5,348.1,481.3,347.4z"/>
		<path class="st4" d="M982.3,347.4l-1.7-1l5.4-9.3v-88.6h-9v213.9l8.7,15l-1.7,1c-2.2,1.3-4.6,2.1-6.9,2.4v844.4h9V349.1
			C984.7,348.7,983.5,348.1,982.3,347.4z"/>
		<path class="st5" d="M203,228.5v20h3c11,0,20-9,20-20v-86c0-11-9-20-20-20h-16c-11,0-20,9-20,20v86c0,11,9,20,20,20h4v-20H203z"/>
		<rect x="194" y="228.5" class="st4" width="9" height="20"/>
		<path class="st5" d="M704,228.5v20h3c11,0,20-9,20-20v-86c0-11-9-20-20-20h-16c-11,0-20,9-20,20v86c0,11,9,20,20,20h4v-20H704z"/>
		<rect x="695" y="228.5" class="st4" width="9" height="20"/>
		<path class="st5" d="M297,354.5v20h3c11,0,20-9,20-20v-86c0-11-9-20-20-20h-16c-11,0-20,9-20,20v86c0,11,9,20,20,20h4v-20H297z"/>
		<rect x="288" y="354.5" class="st4" width="9" height="20"/>
		<path class="st5" d="M798,354.5v20h3c11,0,20-9,20-20v-86c0-11-9-20-20-20h-16c-11,0-20,9-20,20v86c0,11,9,20,20,20h4v-20H798z"/>
		<rect x="789" y="354.5" class="st4" width="9" height="20"/>
		<path class="st5" d="M391,297.5v20h3c11,0,20-9,20-20v-86c0-11-9-20-20-20h-16c-11,0-20,9-20,20v86c0,11,9,20,20,20h4v-20H391z"/>
		<rect x="382" y="297.5" class="st4" width="9" height="20"/>
		<path class="st5" d="M892,297.5v20h3c11,0,20-9,20-20v-86c0-11-9-20-20-20h-16c-11,0-20,9-20,20v86c0,11,9,20,20,20h4v-20H892z"/>
		<rect x="883" y="297.5" class="st4" width="9" height="20"/>
		<path class="st5" d="M122,309.5v20h3c11,0,20-9,20-20v-86c0-11-9-20-20-20h-16c-11,0-20,9-20,20v86c0,11,9,20,20,20h4v-20H122z"/>
		<rect x="113" y="309.5" class="st4" width="9" height="20"/>
		<path class="st5" d="M623,309.5v20h3c11,0,20-9,20-20v-86c0-11-9-20-20-20h-16c-11,0-20,9-20,20v86c0,11,9,20,20,20h4v-20H623z"/>
		<rect x="614" y="309.5" class="st4" width="9" height="20"/>
		<path class="st5" d="M485,228.5v20h3c11,0,20-9,20-20v-86c0-11-9-20-20-20h-16c-11,0-20,9-20,20v86c0,11,9,20,20,20h4v-20H485z"/>
		<rect x="476" y="228.5" class="st4" width="9" height="20"/>
		<path class="st5" d="M1009,228.5v-86c0-11-9-20-20-20h-16c-11,0-20,9-20,20v86c0,11,9,20,20,20h4v-20h9v20h3
			C1000,248.5,1009,239.5,1009,228.5z"/>
		<rect x="977" y="228.5" class="st4" width="9" height="20"/>
		<path class="st4" d="M508.6,340.1l16-27.7l-1.7-1c-9.6-5.5-21.8-2.2-27.3,7.3L485,337.1v12C493.8,352,503.8,348.5,508.6,340.1z"/>
		<path class="st4" d="M481.3,347.4c1.2,0.7,2.4,1.2,3.7,1.6v-12l-5.4,9.3L481.3,347.4z"/>
		<path class="st4" d="M996.6,318.7L986,337.1v12c8.8,3,18.8-0.6,23.7-9l9.7-16.9v-13.8C1010.8,307,1001.3,310.6,996.6,318.7z"/>
		<path class="st4" d="M980.6,346.4l1.7,1c1.2,0.7,2.4,1.2,3.7,1.6v-12L980.6,346.4z"/>
		<path class="st4" d="M321.6,509.1l16-27.7l-1.7-1c-9.6-5.5-21.8-2.2-27.3,7.3L297,507.8v9.8C306,521.3,316.6,517.8,321.6,509.1z"
			/>
		<path class="st4" d="M294.3,516.4c0.9,0.5,1.8,0.9,2.7,1.3v-9.8l-4.4,7.6L294.3,516.4z"/>
		<path class="st4" d="M822.6,509.1l16-27.7l-1.7-1c-9.6-5.5-21.8-2.2-27.3,7.3L798,507.8v9.8C807,521.3,817.6,517.8,822.6,509.1z"
			/>
		<path class="st4" d="M795.3,516.4c0.9,0.5,1.8,0.9,2.7,1.3v-9.8l-4.4,7.6L795.3,516.4z"/>
		<path class="st4" d="M223.6,453.1l16-27.7l-1.7-1c-9.6-5.5-21.8-2.2-27.3,7.3l-7.6,13.2v17.9C211,464.2,219.3,460.6,223.6,453.1z"
			/>
		<path class="st4" d="M196.3,460.4c2.1,1.2,4.4,2,6.7,2.4v-17.9l-8.4,14.5L196.3,460.4z"/>
		<path class="st4" d="M724.6,453.1l16-27.7l-1.7-1c-9.6-5.5-21.8-2.2-27.3,7.3l-7.6,13.2v17.9C712,464.2,720.3,460.6,724.6,453.1z"
			/>
		<path class="st4" d="M697.3,460.4c2.1,1.2,4.4,2,6.7,2.4v-17.9l-8.4,14.5L697.3,460.4z"/>
		<path class="st4" d="M145.6,527.1l16-27.7l-1.7-1c-9.6-5.5-21.8-2.2-27.3,7.3L122,524.1v12C130.8,539,140.8,535.5,145.6,527.1z"/>
		<path class="st4" d="M118.3,534.4c1.2,0.7,2.4,1.2,3.7,1.6v-12l-5.4,9.3L118.3,534.4z"/>
		<path class="st4" d="M646.6,527.1l16-27.7l-1.7-1c-9.6-5.5-21.8-2.2-27.3,7.3L623,524.1v12C631.8,539,641.8,535.5,646.6,527.1z"/>
		<path class="st4" d="M619.3,534.4c1.2,0.7,2.4,1.2,3.7,1.6v-12l-5.4,9.3L619.3,534.4z"/>
		<path class="st4" d="M414.6,396.1l16-27.7l-1.7-1c-9.6-5.5-21.8-2.2-27.3,7.3L391,393.1v12C399.8,408,409.8,404.5,414.6,396.1z"/>
		<path class="st4" d="M387.3,403.4c1.2,0.7,2.4,1.2,3.7,1.6v-12l-5.4,9.3L387.3,403.4z"/>
		<path class="st4" d="M915.6,396.1l16-27.7l-1.7-1c-9.6-5.5-21.8-2.2-27.3,7.3L892,393.1v12C900.8,408,910.8,404.5,915.6,396.1z"/>
		<path class="st4" d="M888.3,403.4c1.2,0.7,2.4,1.2,3.7,1.6v-12l-5.4,9.3L888.3,403.4z"/>
		<path class="st4" d="M369.6,449.7c-5.5-9.6-17.8-12.8-27.3-7.3l-1.7,1l16,27.7c5.2,8.9,16.2,12.4,25.4,8.3v-8.3L369.6,449.7z"/>
		<path class="st4" d="M385.6,477.4l-3.7-6.4v8.3c0.7-0.3,1.3-0.6,1.9-1L385.6,477.4z"/>
		<path class="st4" d="M870.6,449.7c-5.5-9.6-17.8-12.8-27.3-7.3l-1.7,1l16,27.7c5.2,8.9,16.2,12.4,25.4,8.3v-8.3L870.6,449.7z"/>
		<path class="st4" d="M886.6,477.4l-3.7-6.4v8.3c0.7-0.3,1.3-0.6,1.9-1L886.6,477.4z"/>
		<path class="st4" d="M468.6,449.7c-5.5-9.6-17.8-12.8-27.3-7.3l-1.7,1l16,27.7c4.2,7.4,12.5,11,20.4,9.7v-18.4L468.6,449.7z"/>
		<path class="st4" d="M484.6,477.4l-8.7-15v18.4c2.4-0.4,4.7-1.2,6.9-2.4L484.6,477.4z"/>
		<path class="st4" d="M942.3,442.4l-1.7,1l16,27.7c4.2,7.4,12.5,11,20.4,9.7v-18.4l-7.3-12.7C964.1,440.1,951.9,436.9,942.3,442.4z
			"/>
		<path class="st4" d="M983.9,478.4l1.7-1l-8.7-15v18.4C979.3,480.5,981.7,479.7,983.9,478.4z"/>
		<path class="st4" d="M186.6,300.7c-5.5-9.6-17.8-12.8-27.3-7.3l-1.7,1l16,27.7c4.2,7.4,12.5,11,20.4,9.7v-18.4L186.6,300.7z"/>
		<path class="st4" d="M202.6,328.4l-8.7-15v18.4c2.4-0.4,4.7-1.2,6.9-2.4L202.6,328.4z"/>
		<path class="st4" d="M687.6,300.7c-5.5-9.6-17.8-12.8-27.3-7.3l-1.7,1l16,27.7c4.2,7.4,12.5,11,20.4,9.7v-18.4L687.6,300.7z"/>
		<path class="st4" d="M703.6,328.4l-8.7-15v18.4c2.4-0.4,4.7-1.2,6.9-2.4L703.6,328.4z"/>
		<path class="st4" d="M101.6,408.7c-5.5-9.6-17.8-12.8-27.3-7.3l-1.7,1l16,27.7c5,8.6,15.4,12.1,24.4,8.7v-10.5L101.6,408.7z"/>
		<path class="st4" d="M117.6,436.4l-4.7-8.1v10.5c1-0.4,2-0.8,2.9-1.4L117.6,436.4z"/>
		<path class="st4" d="M602.6,408.7c-5.5-9.6-17.8-12.8-27.3-7.3l-1.7,1l16,27.7c5,8.6,15.4,12.1,24.4,8.7v-10.5L602.6,408.7z"/>
		<path class="st4" d="M618.6,436.4l-4.7-8.1v10.5c1-0.4,2-0.8,2.9-1.4L618.6,436.4z"/>
	</g>
</g>
</svg>
